<?xml version="1.0" encoding="UTF-8"?>
<svg width="1381" height="709.5" xmlns="http://www.w3.org/2000/svg" xmlns:s="https://github.com/nturley/netlistsvg">
<style>svg {
    stroke:#000;
    fill:none;
  }
  text {
    fill:#000;
    stroke:none;
    font-size:10px;
    font-weight: bold;
    font-family: "Courier New", monospace;
  }
  .nodelabel {
    text-anchor: middle;
  }
  .inputPortLabel {
    text-anchor: end;
  }
  .splitjoinBody {
    fill:#000;
  }</style>
<g transform="translate(207,32)" s:height="25" s:type="reduce_xor" s:width="33">
<s:alias val="$xor"/>
<s:alias val="$reduce_xor"/>
<s:alias val="$_XOR_"/>
<path class="cell_$abc$122$auto$blifparse.cc:396:parse_blif$123" d="M3,0 A30 25 0 0 1 3,25 A30 25 0 0 0 33,12.5 A30 25 0 0 0 3,0"/>
<path class="cell_$abc$122$auto$blifparse.cc:396:parse_blif$123" d="m0 0a30 25 0 0 1 0 25"/>
</g>
<g transform="translate(346.33 365)" s:height="25" s:type="reduce_xor" s:width="33">
<s:alias val="$xor"/>
<s:alias val="$reduce_xor"/>
<s:alias val="$_XOR_"/>
<path class="cell_$abc$122$auto$blifparse.cc:396:parse_blif$124" d="M3,0 A30 25 0 0 1 3,25 A30 25 0 0 0 33,12.5 A30 25 0 0 0 3,0"/>
<path class="cell_$abc$122$auto$blifparse.cc:396:parse_blif$124" d="m0 0a30 25 0 0 1 0 25"/>
</g>
<g transform="translate(468.33 395)" s:height="25" s:type="reduce_xor" s:width="33">
<s:alias val="$xor"/>
<s:alias val="$reduce_xor"/>
<s:alias val="$_XOR_"/>
<path class="cell_$abc$122$auto$blifparse.cc:396:parse_blif$125" d="M3,0 A30 25 0 0 1 3,25 A30 25 0 0 0 33,12.5 A30 25 0 0 0 3,0"/>
<path class="cell_$abc$122$auto$blifparse.cc:396:parse_blif$125" d="m0 0a30 25 0 0 1 0 25"/>
</g>
<g transform="translate(590.33 441)" s:height="25" s:type="reduce_xor" s:width="33">
<s:alias val="$xor"/>
<s:alias val="$reduce_xor"/>
<s:alias val="$_XOR_"/>
<path class="cell_$abc$122$auto$blifparse.cc:396:parse_blif$126" d="M3,0 A30 25 0 0 1 3,25 A30 25 0 0 0 33,12.5 A30 25 0 0 0 3,0"/>
<path class="cell_$abc$122$auto$blifparse.cc:396:parse_blif$126" d="m0 0a30 25 0 0 1 0 25"/>
</g>
<g transform="translate(712.33 503.5)" s:height="25" s:type="reduce_xor" s:width="33">
<s:alias val="$xor"/>
<s:alias val="$reduce_xor"/>
<s:alias val="$_XOR_"/>
<path class="cell_$abc$122$auto$blifparse.cc:396:parse_blif$127" d="M3,0 A30 25 0 0 1 3,25 A30 25 0 0 0 33,12.5 A30 25 0 0 0 3,0"/>
<path class="cell_$abc$122$auto$blifparse.cc:396:parse_blif$127" d="m0 0a30 25 0 0 1 0 25"/>
</g>
<g transform="translate(834.33 566)" s:height="25" s:type="reduce_xor" s:width="33">
<s:alias val="$xor"/>
<s:alias val="$reduce_xor"/>
<s:alias val="$_XOR_"/>
<path class="cell_$abc$122$auto$blifparse.cc:396:parse_blif$128" d="M3,0 A30 25 0 0 1 3,25 A30 25 0 0 0 33,12.5 A30 25 0 0 0 3,0"/>
<path class="cell_$abc$122$auto$blifparse.cc:396:parse_blif$128" d="m0 0a30 25 0 0 1 0 25"/>
</g>
<g transform="translate(956.33 642.5)" s:height="25" s:type="reduce_xor" s:width="33">
<s:alias val="$xor"/>
<s:alias val="$reduce_xor"/>
<s:alias val="$_XOR_"/>
<path class="cell_$abc$122$auto$blifparse.cc:396:parse_blif$129" d="M3,0 A30 25 0 0 1 3,25 A30 25 0 0 0 33,12.5 A30 25 0 0 0 3,0"/>
<path class="cell_$abc$122$auto$blifparse.cc:396:parse_blif$129" d="m0 0a30 25 0 0 1 0 25"/>
</g>
<g transform="translate(1078.3 672.5)" s:height="25" s:type="reduce_xor" s:width="33">
<s:alias val="$xor"/>
<s:alias val="$reduce_xor"/>
<s:alias val="$_XOR_"/>
<path class="cell_$abc$122$auto$blifparse.cc:396:parse_blif$130" d="M3,0 A30 25 0 0 1 3,25 A30 25 0 0 0 33,12.5 A30 25 0 0 0 3,0"/>
<path class="cell_$abc$122$auto$blifparse.cc:396:parse_blif$130" d="m0 0a30 25 0 0 1 0 25"/>
</g>
<g transform="translate(345,56.5)" s:height="40" s:type="generic" s:width="30">
<text class="nodelabel cell_fa0" x="15" y="-4" s:attribute="ref">fulladd</text>
<rect class="cell_fa0" width="30" height="60" s:generic="body"/>
<g transform="translate(0,10)" s:pid="in0" s:x="0" s:y="10">
<text class="inputPortLabel cell_fa0" x="-3" y="-4">a</text>
</g>
<g transform="translate(0,30)" s:pid="in0" s:x="0" s:y="10">
<text class="inputPortLabel cell_fa0" x="-3" y="-4">b</text>
</g>
<g transform="translate(0,50)" s:pid="in0" s:x="0" s:y="10">
<text class="inputPortLabel cell_fa0" x="-3" y="-4">c_in</text>
</g>
<g transform="translate(30,10)" s:pid="out0" s:x="30" s:y="10">
<text class="cell_fa0" x="5" y="-4">c_out</text>
</g>
<g transform="translate(30,30)" s:pid="out0" s:x="30" s:y="10">
<text class="cell_fa0" x="5" y="-4">s_out</text>
</g>
</g>
<g transform="translate(467,281)" s:height="40" s:type="generic" s:width="30">
<text class="nodelabel cell_fa1" x="15" y="-4" s:attribute="ref">fulladd</text>
<rect class="cell_fa1" width="30" height="60" s:generic="body"/>
<g transform="translate(0,10)" s:pid="in0" s:x="0" s:y="10">
<text class="inputPortLabel cell_fa1" x="-3" y="-4">a</text>
</g>
<g transform="translate(0,30)" s:pid="in0" s:x="0" s:y="10">
<text class="inputPortLabel cell_fa1" x="-3" y="-4">b</text>
</g>
<g transform="translate(0,50)" s:pid="in0" s:x="0" s:y="10">
<text class="inputPortLabel cell_fa1" x="-3" y="-4">c_in</text>
</g>
<g transform="translate(30,10)" s:pid="out0" s:x="30" s:y="10">
<text class="cell_fa1" x="5" y="-4">c_out</text>
</g>
<g transform="translate(30,30)" s:pid="out0" s:x="30" s:y="10">
<text class="cell_fa1" x="5" y="-4">s_out</text>
</g>
</g>
<g transform="translate(589,343.5)" s:height="40" s:type="generic" s:width="30">
<text class="nodelabel cell_fa2" x="15" y="-4" s:attribute="ref">fulladd</text>
<rect class="cell_fa2" width="30" height="60" s:generic="body"/>
<g transform="translate(0,10)" s:pid="in0" s:x="0" s:y="10">
<text class="inputPortLabel cell_fa2" x="-3" y="-4">a</text>
</g>
<g transform="translate(0,30)" s:pid="in0" s:x="0" s:y="10">
<text class="inputPortLabel cell_fa2" x="-3" y="-4">b</text>
</g>
<g transform="translate(0,50)" s:pid="in0" s:x="0" s:y="10">
<text class="inputPortLabel cell_fa2" x="-3" y="-4">c_in</text>
</g>
<g transform="translate(30,10)" s:pid="out0" s:x="30" s:y="10">
<text class="cell_fa2" x="5" y="-4">c_out</text>
</g>
<g transform="translate(30,30)" s:pid="out0" s:x="30" s:y="10">
<text class="cell_fa2" x="5" y="-4">s_out</text>
</g>
</g>
<g transform="translate(711,419.5)" s:height="40" s:type="generic" s:width="30">
<text class="nodelabel cell_fa3" x="15" y="-4" s:attribute="ref">fulladd</text>
<rect class="cell_fa3" width="30" height="60" s:generic="body"/>
<g transform="translate(0,10)" s:pid="in0" s:x="0" s:y="10">
<text class="inputPortLabel cell_fa3" x="-3" y="-4">a</text>
</g>
<g transform="translate(0,30)" s:pid="in0" s:x="0" s:y="10">
<text class="inputPortLabel cell_fa3" x="-3" y="-4">b</text>
</g>
<g transform="translate(0,50)" s:pid="in0" s:x="0" s:y="10">
<text class="inputPortLabel cell_fa3" x="-3" y="-4">c_in</text>
</g>
<g transform="translate(30,10)" s:pid="out0" s:x="30" s:y="10">
<text class="cell_fa3" x="5" y="-4">c_out</text>
</g>
<g transform="translate(30,30)" s:pid="out0" s:x="30" s:y="10">
<text class="cell_fa3" x="5" y="-4">s_out</text>
</g>
</g>
<g transform="translate(833,482)" s:height="40" s:type="generic" s:width="30">
<text class="nodelabel cell_fa4" x="15" y="-4" s:attribute="ref">fulladd</text>
<rect class="cell_fa4" width="30" height="60" s:generic="body"/>
<g transform="translate(0,10)" s:pid="in0" s:x="0" s:y="10">
<text class="inputPortLabel cell_fa4" x="-3" y="-4">a</text>
</g>
<g transform="translate(0,30)" s:pid="in0" s:x="0" s:y="10">
<text class="inputPortLabel cell_fa4" x="-3" y="-4">b</text>
</g>
<g transform="translate(0,50)" s:pid="in0" s:x="0" s:y="10">
<text class="inputPortLabel cell_fa4" x="-3" y="-4">c_in</text>
</g>
<g transform="translate(30,10)" s:pid="out0" s:x="30" s:y="10">
<text class="cell_fa4" x="5" y="-4">c_out</text>
</g>
<g transform="translate(30,30)" s:pid="out0" s:x="30" s:y="10">
<text class="cell_fa4" x="5" y="-4">s_out</text>
</g>
</g>
<g transform="translate(955,544.5)" s:height="40" s:type="generic" s:width="30">
<text class="nodelabel cell_fa5" x="15" y="-4" s:attribute="ref">fulladd</text>
<rect class="cell_fa5" width="30" height="60" s:generic="body"/>
<g transform="translate(0,10)" s:pid="in0" s:x="0" s:y="10">
<text class="inputPortLabel cell_fa5" x="-3" y="-4">a</text>
</g>
<g transform="translate(0,30)" s:pid="in0" s:x="0" s:y="10">
<text class="inputPortLabel cell_fa5" x="-3" y="-4">b</text>
</g>
<g transform="translate(0,50)" s:pid="in0" s:x="0" s:y="10">
<text class="inputPortLabel cell_fa5" x="-3" y="-4">c_in</text>
</g>
<g transform="translate(30,10)" s:pid="out0" s:x="30" s:y="10">
<text class="cell_fa5" x="5" y="-4">c_out</text>
</g>
<g transform="translate(30,30)" s:pid="out0" s:x="30" s:y="10">
<text class="cell_fa5" x="5" y="-4">s_out</text>
</g>
</g>
<g transform="translate(1077,504.5)" s:height="40" s:type="generic" s:width="30">
<text class="nodelabel cell_fa6" x="15" y="-4" s:attribute="ref">fulladd</text>
<rect class="cell_fa6" width="30" height="60" s:generic="body"/>
<g transform="translate(0,10)" s:pid="in0" s:x="0" s:y="10">
<text class="inputPortLabel cell_fa6" x="-3" y="-4">a</text>
</g>
<g transform="translate(0,30)" s:pid="in0" s:x="0" s:y="10">
<text class="inputPortLabel cell_fa6" x="-3" y="-4">b</text>
</g>
<g transform="translate(0,50)" s:pid="in0" s:x="0" s:y="10">
<text class="inputPortLabel cell_fa6" x="-3" y="-4">c_in</text>
</g>
<g transform="translate(30,10)" s:pid="out0" s:x="30" s:y="10">
<text class="cell_fa6" x="5" y="-4">c_out</text>
</g>
<g transform="translate(30,30)" s:pid="out0" s:x="30" s:y="10">
<text class="cell_fa6" x="5" y="-4">s_out</text>
</g>
</g>
<g transform="translate(1199,556)" s:height="40" s:type="generic" s:width="30">
<text class="nodelabel cell_fa7" x="15" y="-4" s:attribute="ref">fulladd</text>
<rect class="cell_fa7" width="30" height="60" s:generic="body"/>
<g transform="translate(0,10)" s:pid="in0" s:x="0" s:y="10">
<text class="inputPortLabel cell_fa7" x="-3" y="-4">a</text>
</g>
<g transform="translate(0,30)" s:pid="in0" s:x="0" s:y="10">
<text class="inputPortLabel cell_fa7" x="-3" y="-4">b</text>
</g>
<g transform="translate(0,50)" s:pid="in0" s:x="0" s:y="10">
<text class="inputPortLabel cell_fa7" x="-3" y="-4">c_in</text>
</g>
<g transform="translate(30,10)" s:pid="out0" s:x="30" s:y="10">
<text class="cell_fa7" x="5" y="-4">c_out</text>
</g>
<g transform="translate(30,30)" s:pid="out0" s:x="30" s:y="10">
<text class="cell_fa7" x="5" y="-4">s_out</text>
</g>
</g>
<g transform="translate(77,22)" s:height="20" s:type="inputExt" s:width="30">
<text class="nodelabel cell_x" x="15" y="-4" s:attribute="ref">x</text>
<s:alias val="$_inputExt_"/>
<path class="cell_x" d="m0 0v20h15l15-10-15-10z"/>
</g>
<g transform="translate(12,74.5)" s:height="20" s:type="inputExt" s:width="30">
<text class="nodelabel cell_y" x="15" y="-4" s:attribute="ref">y</text>
<s:alias val="$_inputExt_"/>
<path class="cell_y" d="m0 0v20h15l15-10-15-10z"/>
</g>
<g transform="translate(77,254)" s:height="20" s:type="inputExt" s:width="30">
<text class="nodelabel cell_c_in" x="15" y="-4" s:attribute="ref">c_in</text>
<s:alias val="$_inputExt_"/>
<path class="cell_c_in" d="m0 0v20h15l15-10-15-10z"/>
</g>
<g transform="translate(1339,109.5)" s:height="20" s:type="outputExt" s:width="30">
<text class="nodelabel cell_s" x="15" y="-4" s:attribute="ref">s</text>
<s:alias val="$_outputExt_"/>
<path class="cell_s" d="m30 0v20h-15l-15-10 15-10z"/>
</g>
<g transform="translate(1339,556.5)" s:height="20" s:type="outputExt" s:width="30">
<text class="nodelabel cell_c_out" x="15" y="-4" s:attribute="ref">c_out</text>
<s:alias val="$_outputExt_"/>
<path class="cell_c_out" d="m30 0v20h-15l-15-10 15-10z"/>
</g>
<g transform="translate(1296,99)" s:height="40" s:type="join" s:width="4">
<rect class="splitjoinBody" width="5" height="160" s:generic="body"/>
<s:alias val="$_join_"/>
<g transform="translate(0,10)" s:pid="in0" s:x="0" s:y="10">
<text class="inputPortLabel" x="-3" y="-4">0</text>
</g>
<g transform="translate(0,30)" s:pid="in0" s:x="0" s:y="10">
<text class="inputPortLabel" x="-3" y="-4">1</text>
</g>
<g transform="translate(0,50)" s:pid="in0" s:x="0" s:y="10">
<text class="inputPortLabel" x="-3" y="-4">2</text>
</g>
<g transform="translate(0,70)" s:pid="in0" s:x="0" s:y="10">
<text class="inputPortLabel" x="-3" y="-4">3</text>
</g>
<g transform="translate(0,90)" s:pid="in0" s:x="0" s:y="10">
<text class="inputPortLabel" x="-3" y="-4">4</text>
</g>
<g transform="translate(0,110)" s:pid="in0" s:x="0" s:y="10">
<text class="inputPortLabel" x="-3" y="-4">5</text>
</g>
<g transform="translate(0,130)" s:pid="in0" s:x="0" s:y="10">
<text class="inputPortLabel" x="-3" y="-4">6</text>
</g>
<g transform="translate(0,150)" s:pid="in0" s:x="0" s:y="10">
<text class="inputPortLabel" x="-3" y="-4">7</text>
</g>
</g>
<g transform="translate(93.429 64)" s:height="40" s:type="split" s:width="5">
<rect class="splitjoinBody" width="5" height="160" s:generic="body"/>
<s:alias val="$_split_"/>
<g transform="translate(4,10)" s:pid="out0" s:x="4" s:y="10">
<text x="5" y="-4">0</text>
</g>
<g transform="translate(4,30)" s:pid="out0" s:x="4" s:y="10">
<text x="5" y="-4">1</text>
</g>
<g transform="translate(4,50)" s:pid="out0" s:x="4" s:y="10">
<text x="5" y="-4">2</text>
</g>
<g transform="translate(4,70)" s:pid="out0" s:x="4" s:y="10">
<text x="5" y="-4">3</text>
</g>
<g transform="translate(4,90)" s:pid="out0" s:x="4" s:y="10">
<text x="5" y="-4">4</text>
</g>
<g transform="translate(4,110)" s:pid="out0" s:x="4" s:y="10">
<text x="5" y="-4">5</text>
</g>
<g transform="translate(4,130)" s:pid="out0" s:x="4" s:y="10">
<text x="5" y="-4">6</text>
</g>
<g transform="translate(4,150)" s:pid="out0" s:x="4" s:y="10">
<text x="5" y="-4">7</text>
</g>
</g>
<g transform="translate(226,79)" s:height="40" s:type="split" s:width="5">
<rect class="splitjoinBody" width="5" height="160" s:generic="body"/>
<s:alias val="$_split_"/>
<g transform="translate(4,10)" s:pid="out0" s:x="4" s:y="10">
<text x="5" y="-4">0</text>
</g>
<g transform="translate(4,30)" s:pid="out0" s:x="4" s:y="10">
<text x="5" y="-4">1</text>
</g>
<g transform="translate(4,50)" s:pid="out0" s:x="4" s:y="10">
<text x="5" y="-4">2</text>
</g>
<g transform="translate(4,70)" s:pid="out0" s:x="4" s:y="10">
<text x="5" y="-4">3</text>
</g>
<g transform="translate(4,90)" s:pid="out0" s:x="4" s:y="10">
<text x="5" y="-4">4</text>
</g>
<g transform="translate(4,110)" s:pid="out0" s:x="4" s:y="10">
<text x="5" y="-4">5</text>
</g>
<g transform="translate(4,130)" s:pid="out0" s:x="4" s:y="10">
<text x="5" y="-4">6</text>
</g>
<g transform="translate(4,150)" s:pid="out0" s:x="4" s:y="10">
<text x="5" y="-4">7</text>
</g>
</g>
<line class="net_18" x1="105" x2="187" y1="264" y2="264"/>
<line class="net_18" x1="187" x2="187" y1="264" y2="37"/>
<circle class="net_18" cx="187" cy="264" r="2"/>
<line class="net_18" x1="187" x2="210" y1="37" y2="37"/>
<line class="net_18" x1="105" x2="187" y1="264" y2="264"/>
<line class="net_18" x1="187" x2="187" y1="264" y2="381"/>
<line class="net_18" x1="187" x2="280" y1="381" y2="381"/>
<line class="net_18" x1="280" x2="280" y1="381" y2="385"/>
<circle class="net_18" cx="187" cy="381" r="2"/>
<line class="net_18" x1="280" x2="349.33" y1="385" y2="385"/>
<line class="net_18" x1="105" x2="187" y1="264" y2="264"/>
<line class="net_18" x1="187" x2="187" y1="264" y2="411"/>
<line class="net_18" x1="187" x2="417" y1="411" y2="411"/>
<line class="net_18" x1="417" x2="417" y1="411" y2="415"/>
<circle class="net_18" cx="187" cy="411" r="2"/>
<line class="net_18" x1="417" x2="471.33" y1="415" y2="415"/>
<line class="net_18" x1="105" x2="187" y1="264" y2="264"/>
<line class="net_18" x1="187" x2="187" y1="264" y2="457"/>
<line class="net_18" x1="187" x2="539" y1="457" y2="457"/>
<line class="net_18" x1="539" x2="539" y1="457" y2="461"/>
<circle class="net_18" cx="187" cy="457" r="2"/>
<line class="net_18" x1="539" x2="593.33" y1="461" y2="461"/>
<line class="net_18" x1="105" x2="187" y1="264" y2="264"/>
<line class="net_18" x1="187" x2="187" y1="264" y2="519.5"/>
<line class="net_18" x1="187" x2="661" y1="519.5" y2="519.5"/>
<line class="net_18" x1="661" x2="661" y1="519.5" y2="523.5"/>
<circle class="net_18" cx="187" cy="519.5" r="2"/>
<line class="net_18" x1="661" x2="715.33" y1="523.5" y2="523.5"/>
<line class="net_18" x1="105" x2="187" y1="264" y2="264"/>
<line class="net_18" x1="187" x2="187" y1="264" y2="582"/>
<line class="net_18" x1="187" x2="783" y1="582" y2="582"/>
<line class="net_18" x1="783" x2="783" y1="582" y2="586"/>
<circle class="net_18" cx="187" cy="582" r="2"/>
<line class="net_18" x1="783" x2="837.33" y1="586" y2="586"/>
<line class="net_18" x1="105" x2="187" y1="264" y2="264"/>
<line class="net_18" x1="187" x2="187" y1="264" y2="658.5"/>
<line class="net_18" x1="187" x2="905" y1="658.5" y2="658.5"/>
<line class="net_18" x1="905" x2="905" y1="658.5" y2="662.5"/>
<circle class="net_18" cx="187" cy="658.5" r="2"/>
<line class="net_18" x1="905" x2="959.33" y1="662.5" y2="662.5"/>
<line class="net_18" x1="105" x2="187" y1="264" y2="264"/>
<line class="net_18" x1="187" x2="187" y1="264" y2="688.5"/>
<line class="net_18" x1="187" x2="1027" y1="688.5" y2="688.5"/>
<line class="net_18" x1="1027" x2="1027" y1="688.5" y2="692.5"/>
<line class="net_18" x1="1027" x2="1081.3" y1="692.5" y2="692.5"/>
<line class="net_18" x1="105" x2="290" y1="264" y2="264"/>
<line class="net_18" x1="290" x2="290" y1="264" y2="107"/>
<line class="net_18" x1="290" x2="345" y1="107" y2="107"/>
<line class="net_10" x1="97.929" x2="97.929" y1="74" y2="52"/>
<line class="net_10" x1="97.929" x2="210" y1="52" y2="52"/>
<line class="net_11" x1="98.429" x2="177" y1="94.5" y2="94.5"/>
<line class="net_11" x1="177" x2="177" y1="94.5" y2="370"/>
<line class="net_11" x1="177" x2="349.33" y1="370" y2="370"/>
<line class="net_12" x1="98.429" x2="167" y1="114.5" y2="114.5"/>
<line class="net_12" x1="167" x2="167" y1="114.5" y2="400"/>
<line class="net_12" x1="167" x2="471.33" y1="400" y2="400"/>
<line class="net_13" x1="98.429" x2="157" y1="134.5" y2="134.5"/>
<line class="net_13" x1="157" x2="157" y1="134.5" y2="446"/>
<line class="net_13" x1="157" x2="593.33" y1="446" y2="446"/>
<line class="net_14" x1="98.429" x2="147" y1="154.5" y2="154.5"/>
<line class="net_14" x1="147" x2="147" y1="154.5" y2="508.5"/>
<line class="net_14" x1="147" x2="715.33" y1="508.5" y2="508.5"/>
<line class="net_15" x1="98.429" x2="137" y1="174.5" y2="174.5"/>
<line class="net_15" x1="137" x2="137" y1="174.5" y2="571"/>
<line class="net_15" x1="137" x2="837.33" y1="571" y2="571"/>
<line class="net_16" x1="98.429" x2="127" y1="194.5" y2="194.5"/>
<line class="net_16" x1="127" x2="127" y1="194.5" y2="647.5"/>
<line class="net_16" x1="127" x2="959.33" y1="647.5" y2="647.5"/>
<line class="net_17" x1="97.929" x2="97.929" y1="215" y2="234"/>
<line class="net_17" x1="97.929" x2="117" y1="234" y2="234"/>
<line class="net_17" x1="117" x2="117" y1="234" y2="677.5"/>
<line class="net_17" x1="117" x2="1081.3" y1="677.5" y2="677.5"/>
<line class="net_2" x1="230.5" x2="230.5" y1="89" y2="67"/>
<line class="net_2" x1="230.5" x2="345" y1="67" y2="67"/>
<line class="net_28" x1="240" x2="250" y1="44.5" y2="44.5"/>
<line class="net_28" x1="250" x2="250" y1="44.5" y2="87"/>
<line class="net_28" x1="250" x2="345" y1="87" y2="87"/>
<line class="net_3" x1="231" x2="310" y1="109.5" y2="109.5"/>
<line class="net_3" x1="310" x2="310" y1="109.5" y2="291.5"/>
<line class="net_3" x1="310" x2="467" y1="291.5" y2="291.5"/>
<line class="net_29" x1="379.33" x2="417" y1="377.5" y2="377.5"/>
<line class="net_29" x1="417" x2="417" y1="377.5" y2="311.5"/>
<line class="net_29" x1="417" x2="467" y1="311.5" y2="311.5"/>
<line class="net_36" x1="376" x2="427" y1="67" y2="67"/>
<line class="net_36" x1="427" x2="427" y1="67" y2="331.5"/>
<line class="net_36" x1="427" x2="467" y1="331.5" y2="331.5"/>
<line class="net_4" x1="231" x2="280" y1="129.5" y2="129.5"/>
<line class="net_4" x1="280" x2="280" y1="129.5" y2="354"/>
<line class="net_4" x1="280" x2="589" y1="354" y2="354"/>
<line class="net_30" x1="501.33" x2="539" y1="407.5" y2="407.5"/>
<line class="net_30" x1="539" x2="539" y1="407.5" y2="374"/>
<line class="net_30" x1="539" x2="589" y1="374" y2="374"/>
<line class="net_37" x1="498" x2="549" y1="291.5" y2="291.5"/>
<line class="net_37" x1="549" x2="549" y1="291.5" y2="394"/>
<line class="net_37" x1="549" x2="589" y1="394" y2="394"/>
<line class="net_5" x1="231" x2="270" y1="149.5" y2="149.5"/>
<line class="net_5" x1="270" x2="270" y1="149.5" y2="430"/>
<line class="net_5" x1="270" x2="711" y1="430" y2="430"/>
<line class="net_31" x1="623.33" x2="661" y1="453.5" y2="453.5"/>
<line class="net_31" x1="661" x2="661" y1="453.5" y2="450"/>
<line class="net_31" x1="661" x2="711" y1="450" y2="450"/>
<line class="net_38" x1="620" x2="671" y1="354" y2="354"/>
<line class="net_38" x1="671" x2="671" y1="354" y2="470"/>
<line class="net_38" x1="671" x2="711" y1="470" y2="470"/>
<line class="net_6" x1="231" x2="260" y1="169.5" y2="169.5"/>
<line class="net_6" x1="260" x2="260" y1="169.5" y2="492.5"/>
<line class="net_6" x1="260" x2="833" y1="492.5" y2="492.5"/>
<line class="net_32" x1="745.33" x2="783" y1="516" y2="516"/>
<line class="net_32" x1="783" x2="783" y1="516" y2="512.5"/>
<line class="net_32" x1="783" x2="833" y1="512.5" y2="512.5"/>
<line class="net_39" x1="742" x2="793" y1="430" y2="430"/>
<line class="net_39" x1="793" x2="793" y1="430" y2="532.5"/>
<line class="net_39" x1="793" x2="833" y1="532.5" y2="532.5"/>
<line class="net_7" x1="231" x2="250" y1="189.5" y2="189.5"/>
<line class="net_7" x1="250" x2="250" y1="189.5" y2="555"/>
<line class="net_7" x1="250" x2="955" y1="555" y2="555"/>
<line class="net_33" x1="867.33" x2="905" y1="578.5" y2="578.5"/>
<line class="net_33" x1="905" x2="905" y1="578.5" y2="575"/>
<line class="net_33" x1="905" x2="955" y1="575" y2="575"/>
<line class="net_40" x1="864" x2="915" y1="492.5" y2="492.5"/>
<line class="net_40" x1="915" x2="915" y1="492.5" y2="595"/>
<line class="net_40" x1="915" x2="955" y1="595" y2="595"/>
<line class="net_8" x1="231" x2="300" y1="209.5" y2="209.5"/>
<line class="net_8" x1="300" x2="300" y1="209.5" y2="260"/>
<line class="net_8" x1="300" x2="1037" y1="260" y2="260"/>
<line class="net_8" x1="1037" x2="1037" y1="260" y2="515"/>
<line class="net_8" x1="1037" x2="1077" y1="515" y2="515"/>
<line class="net_34" x1="989.33" x2="1037" y1="655" y2="655"/>
<line class="net_34" x1="1037" x2="1037" y1="655" y2="535"/>
<line class="net_34" x1="1037" x2="1077" y1="535" y2="535"/>
<line class="net_41" x1="986" x2="1077" y1="555" y2="555"/>
<line class="net_9" x1="230.5" x2="230.5" y1="230" y2="249"/>
<line class="net_9" x1="230.5" x2="1159" y1="249" y2="249"/>
<line class="net_9" x1="1159" x2="1159" y1="249" y2="566.5"/>
<line class="net_9" x1="1159" x2="1199" y1="566.5" y2="566.5"/>
<line class="net_35" x1="1111.3" x2="1159" y1="685" y2="685"/>
<line class="net_35" x1="1159" x2="1159" y1="685" y2="586.5"/>
<line class="net_35" x1="1159" x2="1199" y1="586.5" y2="586.5"/>
<line class="net_42" x1="1108" x2="1149" y1="515" y2="515"/>
<line class="net_42" x1="1149" x2="1149" y1="515" y2="606.5"/>
<line class="net_42" x1="1149" x2="1199" y1="606.5" y2="606.5"/>
<line class="net_19,20,21,22,23,24,25,26" x1="1302" x2="1339" y1="119.5" y2="119.5"/>
<line class="net_27" x1="1230" x2="1339" y1="566.5" y2="566.5"/>
<line class="net_19" x1="376" x2="1296.5" y1="87" y2="87"/>
<line class="net_19" x1="1296.5" x2="1296.5" y1="87" y2="109"/>
<line class="net_20" x1="498" x2="539" y1="311.5" y2="311.5"/>
<line class="net_20" x1="539" x2="539" y1="311.5" y2="138.5"/>
<line class="net_20" x1="539" x2="1271" y1="138.5" y2="138.5"/>
<line class="net_20" x1="1271" x2="1271" y1="138.5" y2="129.5"/>
<line class="net_20" x1="1271" x2="1296" y1="129.5" y2="129.5"/>
<line class="net_21" x1="620" x2="661" y1="374" y2="374"/>
<line class="net_21" x1="661" x2="661" y1="374" y2="149.5"/>
<line class="net_21" x1="661" x2="1296" y1="149.5" y2="149.5"/>
<line class="net_22" x1="742" x2="783" y1="450" y2="450"/>
<line class="net_22" x1="783" x2="783" y1="450" y2="169.5"/>
<line class="net_22" x1="783" x2="1296" y1="169.5" y2="169.5"/>
<line class="net_23" x1="864" x2="905" y1="512.5" y2="512.5"/>
<line class="net_23" x1="905" x2="905" y1="512.5" y2="189.5"/>
<line class="net_23" x1="905" x2="1296" y1="189.5" y2="189.5"/>
<line class="net_24" x1="986" x2="1027" y1="575" y2="575"/>
<line class="net_24" x1="1027" x2="1027" y1="575" y2="209.5"/>
<line class="net_24" x1="1027" x2="1296" y1="209.5" y2="209.5"/>
<line class="net_25" x1="1108" x2="1271" y1="535" y2="535"/>
<line class="net_25" x1="1271" x2="1271" y1="535" y2="229.5"/>
<line class="net_25" x1="1271" x2="1296" y1="229.5" y2="229.5"/>
<line class="net_26" x1="1230" x2="1296.5" y1="586.5" y2="586.5"/>
<line class="net_26" x1="1296.5" x2="1296.5" y1="586.5" y2="250"/>
<line class="net_10,11,12,13,14,15,16,17" x1="40" x2="93.429" y1="84.5" y2="84.5"/>
<line class="net_2,3,4,5,6,7,8,9" x1="105" x2="197" y1="32" y2="32"/>
<line class="net_2,3,4,5,6,7,8,9" x1="197" x2="197" y1="32" y2="99.5"/>
<line class="net_2,3,4,5,6,7,8,9" x1="197" x2="226" y1="99.5" y2="99.5"/>
</svg>
