<svg xmlns="http://www.w3.org/2000/svg" xmlns:xlink="http://www.w3.org/1999/xlink" xmlns:s="https://github.com/nturley/netlistsvg" width="1243" height="674">
  <style>svg {
    stroke:#000;
    fill:none;
  }
  text {
    fill:#000;
    stroke:none;
    font-size:10px;
    font-weight: bold;
    font-family: "Courier New", monospace;
  }
  .nodelabel {
    text-anchor: middle;
  }
  .inputPortLabel {
    text-anchor: end;
  }
  .splitjoinBody {
    fill:#000;
  }</style>
  <g s:type="generic" transform="translate(202,146)" s:width="30" s:height="40" id="cell_fa0">
    <text x="15" y="-4" class="nodelabel cell_fa0" s:attribute="ref">fulladd</text>
    <rect width="30" height="60" s:generic="body" class="cell_fa0"/>
    <g transform="translate(0,10)" s:x="0" s:y="10" s:pid="in0" id="port_fa0~a">
      <text x="-3" y="-4" class="inputPortLabel cell_fa0">a</text>
    </g>
    <g transform="translate(0,30)" s:x="0" s:y="10" s:pid="in0" id="port_fa0~b">
      <text x="-3" y="-4" class="inputPortLabel cell_fa0">b</text>
    </g>
    <g transform="translate(0,50)" s:x="0" s:y="10" s:pid="in0" id="port_fa0~c_in">
      <text x="-3" y="-4" class="inputPortLabel cell_fa0">c_in</text>
    </g>
    <g transform="translate(30,10)" s:x="30" s:y="10" s:pid="out0" id="port_fa0~c_out">
      <text x="5" y="-4" style="fill:#000; stroke:none" class="cell_fa0">c_out</text>
    </g>
    <g transform="translate(30,30)" s:x="30" s:y="10" s:pid="out0" id="port_fa0~s_out">
      <text x="5" y="-4" style="fill:#000; stroke:none" class="cell_fa0">s_out</text>
    </g>
  </g>
  <g s:type="generic" transform="translate(324,106)" s:width="30" s:height="40" id="cell_fa1">
    <text x="15" y="-4" class="nodelabel cell_fa1" s:attribute="ref">fulladd</text>
    <rect width="30" height="60" s:generic="body" class="cell_fa1"/>
    <g transform="translate(0,10)" s:x="0" s:y="10" s:pid="in0" id="port_fa1~a">
      <text x="-3" y="-4" class="inputPortLabel cell_fa1">a</text>
    </g>
    <g transform="translate(0,30)" s:x="0" s:y="10" s:pid="in0" id="port_fa1~b">
      <text x="-3" y="-4" class="inputPortLabel cell_fa1">b</text>
    </g>
    <g transform="translate(0,50)" s:x="0" s:y="10" s:pid="in0" id="port_fa1~c_in">
      <text x="-3" y="-4" class="inputPortLabel cell_fa1">c_in</text>
    </g>
    <g transform="translate(30,10)" s:x="30" s:y="10" s:pid="out0" id="port_fa1~c_out">
      <text x="5" y="-4" style="fill:#000; stroke:none" class="cell_fa1">c_out</text>
    </g>
    <g transform="translate(30,30)" s:x="30" s:y="10" s:pid="out0" id="port_fa1~s_out">
      <text x="5" y="-4" style="fill:#000; stroke:none" class="cell_fa1">s_out</text>
    </g>
  </g>
  <g s:type="generic" transform="translate(446,66)" s:width="30" s:height="40" id="cell_fa2">
    <text x="15" y="-4" class="nodelabel cell_fa2" s:attribute="ref">fulladd</text>
    <rect width="30" height="60" s:generic="body" class="cell_fa2"/>
    <g transform="translate(0,10)" s:x="0" s:y="10" s:pid="in0" id="port_fa2~a">
      <text x="-3" y="-4" class="inputPortLabel cell_fa2">a</text>
    </g>
    <g transform="translate(0,30)" s:x="0" s:y="10" s:pid="in0" id="port_fa2~b">
      <text x="-3" y="-4" class="inputPortLabel cell_fa2">b</text>
    </g>
    <g transform="translate(0,50)" s:x="0" s:y="10" s:pid="in0" id="port_fa2~c_in">
      <text x="-3" y="-4" class="inputPortLabel cell_fa2">c_in</text>
    </g>
    <g transform="translate(30,10)" s:x="30" s:y="10" s:pid="out0" id="port_fa2~c_out">
      <text x="5" y="-4" style="fill:#000; stroke:none" class="cell_fa2">c_out</text>
    </g>
    <g transform="translate(30,30)" s:x="30" s:y="10" s:pid="out0" id="port_fa2~s_out">
      <text x="5" y="-4" style="fill:#000; stroke:none" class="cell_fa2">s_out</text>
    </g>
  </g>
  <g s:type="generic" transform="translate(568,208.5)" s:width="30" s:height="40" id="cell_fa3">
    <text x="15" y="-4" class="nodelabel cell_fa3" s:attribute="ref">fulladd</text>
    <rect width="30" height="60" s:generic="body" class="cell_fa3"/>
    <g transform="translate(0,10)" s:x="0" s:y="10" s:pid="in0" id="port_fa3~a">
      <text x="-3" y="-4" class="inputPortLabel cell_fa3">a</text>
    </g>
    <g transform="translate(0,30)" s:x="0" s:y="10" s:pid="in0" id="port_fa3~b">
      <text x="-3" y="-4" class="inputPortLabel cell_fa3">b</text>
    </g>
    <g transform="translate(0,50)" s:x="0" s:y="10" s:pid="in0" id="port_fa3~c_in">
      <text x="-3" y="-4" class="inputPortLabel cell_fa3">c_in</text>
    </g>
    <g transform="translate(30,10)" s:x="30" s:y="10" s:pid="out0" id="port_fa3~c_out">
      <text x="5" y="-4" style="fill:#000; stroke:none" class="cell_fa3">c_out</text>
    </g>
    <g transform="translate(30,30)" s:x="30" s:y="10" s:pid="out0" id="port_fa3~s_out">
      <text x="5" y="-4" style="fill:#000; stroke:none" class="cell_fa3">s_out</text>
    </g>
  </g>
  <g s:type="generic" transform="translate(690,271)" s:width="30" s:height="40" id="cell_fa4">
    <text x="15" y="-4" class="nodelabel cell_fa4" s:attribute="ref">fulladd</text>
    <rect width="30" height="60" s:generic="body" class="cell_fa4"/>
    <g transform="translate(0,10)" s:x="0" s:y="10" s:pid="in0" id="port_fa4~a">
      <text x="-3" y="-4" class="inputPortLabel cell_fa4">a</text>
    </g>
    <g transform="translate(0,30)" s:x="0" s:y="10" s:pid="in0" id="port_fa4~b">
      <text x="-3" y="-4" class="inputPortLabel cell_fa4">b</text>
    </g>
    <g transform="translate(0,50)" s:x="0" s:y="10" s:pid="in0" id="port_fa4~c_in">
      <text x="-3" y="-4" class="inputPortLabel cell_fa4">c_in</text>
    </g>
    <g transform="translate(30,10)" s:x="30" s:y="10" s:pid="out0" id="port_fa4~c_out">
      <text x="5" y="-4" style="fill:#000; stroke:none" class="cell_fa4">c_out</text>
    </g>
    <g transform="translate(30,30)" s:x="30" s:y="10" s:pid="out0" id="port_fa4~s_out">
      <text x="5" y="-4" style="fill:#000; stroke:none" class="cell_fa4">s_out</text>
    </g>
  </g>
  <g s:type="generic" transform="translate(812,333.5)" s:width="30" s:height="40" id="cell_fa5">
    <text x="15" y="-4" class="nodelabel cell_fa5" s:attribute="ref">fulladd</text>
    <rect width="30" height="60" s:generic="body" class="cell_fa5"/>
    <g transform="translate(0,10)" s:x="0" s:y="10" s:pid="in0" id="port_fa5~a">
      <text x="-3" y="-4" class="inputPortLabel cell_fa5">a</text>
    </g>
    <g transform="translate(0,30)" s:x="0" s:y="10" s:pid="in0" id="port_fa5~b">
      <text x="-3" y="-4" class="inputPortLabel cell_fa5">b</text>
    </g>
    <g transform="translate(0,50)" s:x="0" s:y="10" s:pid="in0" id="port_fa5~c_in">
      <text x="-3" y="-4" class="inputPortLabel cell_fa5">c_in</text>
    </g>
    <g transform="translate(30,10)" s:x="30" s:y="10" s:pid="out0" id="port_fa5~c_out">
      <text x="5" y="-4" style="fill:#000; stroke:none" class="cell_fa5">c_out</text>
    </g>
    <g transform="translate(30,30)" s:x="30" s:y="10" s:pid="out0" id="port_fa5~s_out">
      <text x="5" y="-4" style="fill:#000; stroke:none" class="cell_fa5">s_out</text>
    </g>
  </g>
  <g s:type="generic" transform="translate(934,396)" s:width="30" s:height="40" id="cell_fa6">
    <text x="15" y="-4" class="nodelabel cell_fa6" s:attribute="ref">fulladd</text>
    <rect width="30" height="60" s:generic="body" class="cell_fa6"/>
    <g transform="translate(0,10)" s:x="0" s:y="10" s:pid="in0" id="port_fa6~a">
      <text x="-3" y="-4" class="inputPortLabel cell_fa6">a</text>
    </g>
    <g transform="translate(0,30)" s:x="0" s:y="10" s:pid="in0" id="port_fa6~b">
      <text x="-3" y="-4" class="inputPortLabel cell_fa6">b</text>
    </g>
    <g transform="translate(0,50)" s:x="0" s:y="10" s:pid="in0" id="port_fa6~c_in">
      <text x="-3" y="-4" class="inputPortLabel cell_fa6">c_in</text>
    </g>
    <g transform="translate(30,10)" s:x="30" s:y="10" s:pid="out0" id="port_fa6~c_out">
      <text x="5" y="-4" style="fill:#000; stroke:none" class="cell_fa6">c_out</text>
    </g>
    <g transform="translate(30,30)" s:x="30" s:y="10" s:pid="out0" id="port_fa6~s_out">
      <text x="5" y="-4" style="fill:#000; stroke:none" class="cell_fa6">s_out</text>
    </g>
  </g>
  <g s:type="generic" transform="translate(1056,458.5)" s:width="30" s:height="40" id="cell_fa7">
    <text x="15" y="-4" class="nodelabel cell_fa7" s:attribute="ref">fulladd</text>
    <rect width="30" height="60" s:generic="body" class="cell_fa7"/>
    <g transform="translate(0,10)" s:x="0" s:y="10" s:pid="in0" id="port_fa7~a">
      <text x="-3" y="-4" class="inputPortLabel cell_fa7">a</text>
    </g>
    <g transform="translate(0,30)" s:x="0" s:y="10" s:pid="in0" id="port_fa7~b">
      <text x="-3" y="-4" class="inputPortLabel cell_fa7">b</text>
    </g>
    <g transform="translate(0,50)" s:x="0" s:y="10" s:pid="in0" id="port_fa7~c_in">
      <text x="-3" y="-4" class="inputPortLabel cell_fa7">c_in</text>
    </g>
    <g transform="translate(30,10)" s:x="30" s:y="10" s:pid="out0" id="port_fa7~c_out">
      <text x="5" y="-4" style="fill:#000; stroke:none" class="cell_fa7">c_out</text>
    </g>
    <g transform="translate(30,30)" s:x="30" s:y="10" s:pid="out0" id="port_fa7~s_out">
      <text x="5" y="-4" style="fill:#000; stroke:none" class="cell_fa7">s_out</text>
    </g>
  </g>
  <g s:type="inputExt" transform="translate(12,286.5)" s:width="30" s:height="20" id="cell_x">
    <text x="15" y="-4" class="nodelabel cell_x" s:attribute="ref">x</text>
    <s:alias val="$_inputExt_"/>
    <path d="M0,0 L0,20 L15,20 L30,10 L15,0 Z" class="cell_x"/>
    <g s:x="28" s:y="10" s:pid="Y"/>
  </g>
  <g s:type="inputExt" transform="translate(12,501.5)" s:width="30" s:height="20" id="cell_y">
    <text x="15" y="-4" class="nodelabel cell_y" s:attribute="ref">y</text>
    <s:alias val="$_inputExt_"/>
    <path d="M0,0 L0,20 L15,20 L30,10 L15,0 Z" class="cell_y"/>
    <g s:x="28" s:y="10" s:pid="Y"/>
  </g>
  <g s:type="inputExt" transform="translate(77,126.5)" s:width="30" s:height="20" id="cell_c_in">
    <text x="15" y="-4" class="nodelabel cell_c_in" s:attribute="ref">c_in</text>
    <s:alias val="$_inputExt_"/>
    <path d="M0,0 L0,20 L15,20 L30,10 L15,0 Z" class="cell_c_in"/>
    <g s:x="28" s:y="10" s:pid="Y"/>
  </g>
  <g s:type="outputExt" transform="translate(1201,221.5)" s:width="30" s:height="20" id="cell_s">
    <text x="15" y="-4" class="nodelabel cell_s" s:attribute="ref">s</text>
    <s:alias val="$_outputExt_"/>
    <path d="M30,0 L30,20 L15,20 L0,10 L15,0 Z" class="cell_s"/>
    <g s:x="0" s:y="10" s:pid="A"/>
  </g>
  <g s:type="outputExt" transform="translate(1201,459)" s:width="30" s:height="20" id="cell_c_out">
    <text x="15" y="-4" class="nodelabel cell_c_out" s:attribute="ref">c_out</text>
    <s:alias val="$_outputExt_"/>
    <path d="M30,0 L30,20 L15,20 L0,10 L15,0 Z" class="cell_c_out"/>
    <g s:x="0" s:y="10" s:pid="A"/>
  </g>
  <g s:type="join" transform="translate(1158,211)" s:width="4" s:height="40" id="cell_$join$,19,20,21,22,23,24,25,26,">
    <rect width="5" height="160" class="splitjoinBody" s:generic="body"/>
    <s:alias val="$_join_"/>
    <g s:x="5" s:y="20" s:pid="out"/>
    <g transform="translate(0,10)" s:x="0" s:y="10" s:pid="in0">
      <text x="-3" y="-4" class="inputPortLabel">0</text>
    </g>
    <g transform="translate(0,30)" s:x="0" s:y="10" s:pid="in0">
      <text x="-3" y="-4" class="inputPortLabel">1</text>
    </g>
    <g transform="translate(0,50)" s:x="0" s:y="10" s:pid="in0">
      <text x="-3" y="-4" class="inputPortLabel">2</text>
    </g>
    <g transform="translate(0,70)" s:x="0" s:y="10" s:pid="in0">
      <text x="-3" y="-4" class="inputPortLabel">3</text>
    </g>
    <g transform="translate(0,90)" s:x="0" s:y="10" s:pid="in0">
      <text x="-3" y="-4" class="inputPortLabel">4</text>
    </g>
    <g transform="translate(0,110)" s:x="0" s:y="10" s:pid="in0">
      <text x="-3" y="-4" class="inputPortLabel">5</text>
    </g>
    <g transform="translate(0,130)" s:x="0" s:y="10" s:pid="in0">
      <text x="-3" y="-4" class="inputPortLabel">6</text>
    </g>
    <g transform="translate(0,150)" s:x="0" s:y="10" s:pid="in0">
      <text x="-3" y="-4" class="inputPortLabel">7</text>
    </g>
  </g>
  <g s:type="split" transform="translate(93.42857142857143,276)" s:width="5" s:height="40" id="cell_$split$,2,3,4,5,6,7,8,9,">
    <rect width="5" height="160" class="splitjoinBody" s:generic="body"/>
    <s:alias val="$_split_"/>
    <g s:x="0" s:y="20" s:pid="in"/>
    <g transform="translate(4,10)" s:x="4" s:y="10" s:pid="out0">
      <text x="5" y="-4">0</text>
    </g>
    <g transform="translate(4,30)" s:x="4" s:y="10" s:pid="out0">
      <text x="5" y="-4">1</text>
    </g>
    <g transform="translate(4,50)" s:x="4" s:y="10" s:pid="out0">
      <text x="5" y="-4">2</text>
    </g>
    <g transform="translate(4,70)" s:x="4" s:y="10" s:pid="out0">
      <text x="5" y="-4">3</text>
    </g>
    <g transform="translate(4,90)" s:x="4" s:y="10" s:pid="out0">
      <text x="5" y="-4">4</text>
    </g>
    <g transform="translate(4,110)" s:x="4" s:y="10" s:pid="out0">
      <text x="5" y="-4">5</text>
    </g>
    <g transform="translate(4,130)" s:x="4" s:y="10" s:pid="out0">
      <text x="5" y="-4">6</text>
    </g>
    <g transform="translate(4,150)" s:x="4" s:y="10" s:pid="out0">
      <text x="5" y="-4">7</text>
    </g>
  </g>
  <g s:type="split" transform="translate(93.42857142857143,491)" s:width="5" s:height="40" id="cell_$split$,10,11,12,13,14,15,16,17,">
    <rect width="5" height="160" class="splitjoinBody" s:generic="body"/>
    <s:alias val="$_split_"/>
    <g s:x="0" s:y="20" s:pid="in"/>
    <g transform="translate(4,10)" s:x="4" s:y="10" s:pid="out0">
      <text x="5" y="-4">0</text>
    </g>
    <g transform="translate(4,30)" s:x="4" s:y="10" s:pid="out0">
      <text x="5" y="-4">1</text>
    </g>
    <g transform="translate(4,50)" s:x="4" s:y="10" s:pid="out0">
      <text x="5" y="-4">2</text>
    </g>
    <g transform="translate(4,70)" s:x="4" s:y="10" s:pid="out0">
      <text x="5" y="-4">3</text>
    </g>
    <g transform="translate(4,90)" s:x="4" s:y="10" s:pid="out0">
      <text x="5" y="-4">4</text>
    </g>
    <g transform="translate(4,110)" s:x="4" s:y="10" s:pid="out0">
      <text x="5" y="-4">5</text>
    </g>
    <g transform="translate(4,130)" s:x="4" s:y="10" s:pid="out0">
      <text x="5" y="-4">6</text>
    </g>
    <g transform="translate(4,150)" s:x="4" s:y="10" s:pid="out0">
      <text x="5" y="-4">7</text>
    </g>
  </g>
  <line x1="97.92857142857143" x2="97.92857142857143" y1="286" y2="156.5" class="net_2"/>
  <line x1="97.92857142857143" x2="202" y1="156.5" y2="156.5" class="net_2"/>
  <line x1="97.92857142857143" x2="97.92857142857143" y1="501" y2="479" class="net_10"/>
  <line x1="97.92857142857143" x2="157" y1="479" y2="479" class="net_10"/>
  <line x1="157" x2="157" y1="479" y2="176.5" class="net_10"/>
  <line x1="157" x2="202" y1="176.5" y2="176.5" class="net_10"/>
  <line x1="105" x2="167" y1="136.5" y2="136.5" class="net_18"/>
  <line x1="167" x2="167" y1="136.5" y2="196.5" class="net_18"/>
  <line x1="167" x2="202" y1="196.5" y2="196.5" class="net_18"/>
  <line x1="98.42857142857143" x2="117" y1="306.5" y2="306.5" class="net_3"/>
  <line x1="117" x2="117" y1="306.5" y2="12" class="net_3"/>
  <line x1="117" x2="284" y1="12" y2="12" class="net_3"/>
  <line x1="284" x2="284" y1="12" y2="116.5" class="net_3"/>
  <line x1="284" x2="324" y1="116.5" y2="116.5" class="net_3"/>
  <line x1="98.42857142857143" x2="284" y1="521.5" y2="521.5" class="net_11"/>
  <line x1="284" x2="284" y1="521.5" y2="136.5" class="net_11"/>
  <line x1="284" x2="324" y1="136.5" y2="136.5" class="net_11"/>
  <line x1="233" x2="324" y1="156.5" y2="156.5" class="net_28"/>
  <line x1="98.42857142857143" x2="127" y1="326.5" y2="326.5" class="net_4"/>
  <line x1="127" x2="127" y1="326.5" y2="23" class="net_4"/>
  <line x1="127" x2="406" y1="23" y2="23" class="net_4"/>
  <line x1="406" x2="406" y1="23" y2="76.5" class="net_4"/>
  <line x1="406" x2="446" y1="76.5" y2="76.5" class="net_4"/>
  <line x1="98.42857142857143" x2="406" y1="541.5" y2="541.5" class="net_12"/>
  <line x1="406" x2="406" y1="541.5" y2="96.5" class="net_12"/>
  <line x1="406" x2="446" y1="96.5" y2="96.5" class="net_12"/>
  <line x1="355" x2="446" y1="116.5" y2="116.5" class="net_29"/>
  <line x1="98.42857142857143" x2="137" y1="346.5" y2="346.5" class="net_5"/>
  <line x1="137" x2="137" y1="346.5" y2="219" class="net_5"/>
  <line x1="137" x2="568" y1="219" y2="219" class="net_5"/>
  <line x1="98.42857142857143" x2="518" y1="561.5" y2="561.5" class="net_13"/>
  <line x1="518" x2="518" y1="561.5" y2="239" class="net_13"/>
  <line x1="518" x2="568" y1="239" y2="239" class="net_13"/>
  <line x1="477" x2="528" y1="76.5" y2="76.5" class="net_30"/>
  <line x1="528" x2="528" y1="76.5" y2="259" class="net_30"/>
  <line x1="528" x2="568" y1="259" y2="259" class="net_30"/>
  <line x1="98.42857142857143" x2="147" y1="366.5" y2="366.5" class="net_6"/>
  <line x1="147" x2="147" y1="366.5" y2="281.5" class="net_6"/>
  <line x1="147" x2="690" y1="281.5" y2="281.5" class="net_6"/>
  <line x1="98.42857142857143" x2="640" y1="581.5" y2="581.5" class="net_14"/>
  <line x1="640" x2="640" y1="581.5" y2="301.5" class="net_14"/>
  <line x1="640" x2="690" y1="301.5" y2="301.5" class="net_14"/>
  <line x1="599" x2="650" y1="219" y2="219" class="net_31"/>
  <line x1="650" x2="650" y1="219" y2="321.5" class="net_31"/>
  <line x1="650" x2="690" y1="321.5" y2="321.5" class="net_31"/>
  <line x1="98.42857142857143" x2="167" y1="386.5" y2="386.5" class="net_7"/>
  <line x1="167" x2="167" y1="386.5" y2="344" class="net_7"/>
  <line x1="167" x2="812" y1="344" y2="344" class="net_7"/>
  <line x1="98.42857142857143" x2="762" y1="601.5" y2="601.5" class="net_15"/>
  <line x1="762" x2="762" y1="601.5" y2="364" class="net_15"/>
  <line x1="762" x2="812" y1="364" y2="364" class="net_15"/>
  <line x1="721" x2="772" y1="281.5" y2="281.5" class="net_32"/>
  <line x1="772" x2="772" y1="281.5" y2="384" class="net_32"/>
  <line x1="772" x2="812" y1="384" y2="384" class="net_32"/>
  <line x1="98.42857142857143" x2="934" y1="406.5" y2="406.5" class="net_8"/>
  <line x1="98.42857142857143" x2="884" y1="621.5" y2="621.5" class="net_16"/>
  <line x1="884" x2="884" y1="621.5" y2="426.5" class="net_16"/>
  <line x1="884" x2="934" y1="426.5" y2="426.5" class="net_16"/>
  <line x1="843" x2="894" y1="344" y2="344" class="net_33"/>
  <line x1="894" x2="894" y1="344" y2="446.5" class="net_33"/>
  <line x1="894" x2="934" y1="446.5" y2="446.5" class="net_33"/>
  <line x1="97.92857142857143" x2="97.92857142857143" y1="427" y2="469" class="net_9"/>
  <line x1="97.92857142857143" x2="1056" y1="469" y2="469" class="net_9"/>
  <line x1="97.92857142857143" x2="97.92857142857143" y1="642" y2="661" class="net_17"/>
  <line x1="97.92857142857143" x2="1006" y1="661" y2="661" class="net_17"/>
  <line x1="1006" x2="1006" y1="661" y2="489" class="net_17"/>
  <line x1="1006" x2="1056" y1="489" y2="489" class="net_17"/>
  <line x1="965" x2="1016" y1="406.5" y2="406.5" class="net_34"/>
  <line x1="1016" x2="1016" y1="406.5" y2="509" class="net_34"/>
  <line x1="1016" x2="1056" y1="509" y2="509" class="net_34"/>
  <line x1="1164" x2="1201" y1="231.5" y2="231.5" class="net_19,20,21,22,23,24,25,26"/>
  <line x1="1087" x2="1201" y1="469" y2="469" class="net_27"/>
  <line x1="233" x2="274" y1="176.5" y2="176.5" class="net_19"/>
  <line x1="274" x2="274" y1="176.5" y2="34" class="net_19"/>
  <line x1="274" x2="1158.5" y1="34" y2="34" class="net_19"/>
  <line x1="1158.5" x2="1158.5" y1="34" y2="221" class="net_19"/>
  <line x1="355" x2="396" y1="136.5" y2="136.5" class="net_20"/>
  <line x1="396" x2="396" y1="136.5" y2="45" class="net_20"/>
  <line x1="396" x2="1148" y1="45" y2="45" class="net_20"/>
  <line x1="1148" x2="1148" y1="45" y2="241.5" class="net_20"/>
  <line x1="1148" x2="1158" y1="241.5" y2="241.5" class="net_20"/>
  <line x1="477" x2="1138" y1="96.5" y2="96.5" class="net_21"/>
  <line x1="1138" x2="1138" y1="96.5" y2="261.5" class="net_21"/>
  <line x1="1138" x2="1158" y1="261.5" y2="261.5" class="net_21"/>
  <line x1="599" x2="1128" y1="239" y2="239" class="net_22"/>
  <line x1="1128" x2="1128" y1="239" y2="281.5" class="net_22"/>
  <line x1="1128" x2="1158" y1="281.5" y2="281.5" class="net_22"/>
  <line x1="721" x2="1158" y1="301.5" y2="301.5" class="net_23"/>
  <line x1="843" x2="1128" y1="364" y2="364" class="net_24"/>
  <line x1="1128" x2="1128" y1="364" y2="321.5" class="net_24"/>
  <line x1="1128" x2="1158" y1="321.5" y2="321.5" class="net_24"/>
  <line x1="965" x2="1138" y1="426.5" y2="426.5" class="net_25"/>
  <line x1="1138" x2="1138" y1="426.5" y2="341.5" class="net_25"/>
  <line x1="1138" x2="1158" y1="341.5" y2="341.5" class="net_25"/>
  <line x1="1087" x2="1158.5" y1="489" y2="489" class="net_26"/>
  <line x1="1158.5" x2="1158.5" y1="489" y2="362" class="net_26"/>
  <line x1="40" x2="93.42857142857143" y1="296.5" y2="296.5" class="net_2,3,4,5,6,7,8,9"/>
  <line x1="40" x2="93.42857142857143" y1="511.5" y2="511.5" class="net_10,11,12,13,14,15,16,17"/>
</svg>
