<?xml version="1.0" encoding="UTF-8"?>
<svg width="261" height="119" xmlns="http://www.w3.org/2000/svg" xmlns:s="https://github.com/nturley/netlistsvg">
<style>svg {
    stroke:#000;
    fill:none;
  }
  text {
    fill:#000;
    stroke:none;
    font-size:10px;
    font-weight: bold;
    font-family: "Courier New", monospace;
  }
  .nodelabel {
    text-anchor: middle;
  }
  .inputPortLabel {
    text-anchor: end;
  }
  .splitjoinBody {
    fill:#000;
  }</style>
<g transform="translate(77,77)" s:height="25" s:type="nand" s:width="30">
<s:alias val="$nand"/>
<s:alias val="$logic_nand"/>
<s:alias val="$_NAND_"/>
<s:alias val="$_ANDNOT_"/>
<path class="cell_$abc$170$auto$blifparse.cc:396:parse_blif$171" d="m0 0v25h15a15 12.5 0 0 0 0-25z"/>
<circle class="cell_$abc$170$auto$blifparse.cc:396:parse_blif$171" cx="34" cy="12.5" r="3"/>
</g>
<g transform="translate(148,69.5)" s:height="25" s:type="nand" s:width="30">
<s:alias val="$nand"/>
<s:alias val="$logic_nand"/>
<s:alias val="$_NAND_"/>
<s:alias val="$_ANDNOT_"/>
<path class="cell_$abc$170$auto$blifparse.cc:396:parse_blif$172" d="m0 0v25h15a15 12.5 0 0 0 0-25z"/>
<circle class="cell_$abc$170$auto$blifparse.cc:396:parse_blif$172" cx="34" cy="12.5" r="3"/>
</g>
<g transform="translate(12,87)" s:height="20" s:type="inputExt" s:width="30">
<text class="nodelabel cell_a" x="15" y="-4" s:attribute="ref">a</text>
<s:alias val="$_inputExt_"/>
<path class="cell_a" d="m0 0v20h15l15-10-15-10z"/>
</g>
<g transform="translate(12,22)" s:height="20" s:type="inputExt" s:width="30">
<text class="nodelabel cell_b" x="15" y="-4" s:attribute="ref">b</text>
<s:alias val="$_inputExt_"/>
<path class="cell_b" d="m0 0v20h15l15-10-15-10z"/>
</g>
<g transform="translate(77,22)" s:height="20" s:type="inputExt" s:width="30">
<text class="nodelabel cell_c" x="15" y="-4" s:attribute="ref">c</text>
<s:alias val="$_inputExt_"/>
<path class="cell_c" d="m0 0v20h15l15-10-15-10z"/>
</g>
<g transform="translate(219,72)" s:height="20" s:type="outputExt" s:width="30">
<text class="nodelabel cell_z" x="15" y="-4" s:attribute="ref">z</text>
<s:alias val="$_outputExt_"/>
<path class="cell_z" d="m30 0v20h-15l-15-10 15-10z"/>
</g>
<line class="net_3" x1="40" x2="52" y1="32" y2="32"/>
<line class="net_3" x1="52" x2="52" y1="32" y2="82"/>
<line class="net_3" x1="52" x2="77" y1="82" y2="82"/>
<line class="net_2" x1="40" x2="77" y1="97" y2="97"/>
<line class="net_4" x1="105" x2="123" y1="32" y2="32"/>
<line class="net_4" x1="123" x2="123" y1="32" y2="74.5"/>
<line class="net_4" x1="123" x2="148" y1="74.5" y2="74.5"/>
<line class="net_6" x1="113" x2="148" y1="89.5" y2="89.5"/>
<line class="net_5" x1="184" x2="219" y1="82" y2="82"/>
</svg>
