<?xml version="1.0" encoding="UTF-8"?>
<svg width="266" height="164" xmlns="http://www.w3.org/2000/svg" xmlns:s="https://github.com/nturley/netlistsvg">
<style>svg {
    stroke:#000;
    fill:none;
  }
  text {
    fill:#000;
    stroke:none;
    font-size:10px;
    font-weight: bold;
    font-family: "Courier New", monospace;
  }
  .nodelabel {
    text-anchor: middle;
  }
  .inputPortLabel {
    text-anchor: end;
  }
  .splitjoinBody {
    fill:#000;
  }</style>
<g transform="translate(90,92)" s:height="40" s:type="mux" s:width="20">
<s:alias val="$pmux"/>
<s:alias val="$mux"/>
<s:alias val="$_MUX_"/>
<path class="cell_$abc$177$auto$blifparse.cc:396:parse_blif$179" d="m0 0 20 10v20l-20 10z"/>
</g>
<g transform="translate(82,27)" s:height="25" s:type="reduce_nor" s:width="33">
<s:alias val="$nor"/>
<s:alias val="$reduce_nor"/>
<s:alias val="$_NOR_"/>
<s:alias val="$_ORNOT_"/>
<path class="cell_$abc$177$auto$blifparse.cc:396:parse_blif$180" d="m0 25h15a15 12.5 0 0 0 0-25h-15"/>
<path class="cell_$abc$177$auto$blifparse.cc:396:parse_blif$180" d="m0 0a30 25 0 0 1 0 25"/>
<circle class="cell_$abc$177$auto$blifparse.cc:396:parse_blif$180" cx="34" cy="12.5" r="3"/>
</g>
<g transform="translate(153,34.5)" s:height="25" s:type="nand" s:width="30">
<s:alias val="$nand"/>
<s:alias val="$logic_nand"/>
<s:alias val="$_NAND_"/>
<s:alias val="$_ANDNOT_"/>
<path class="cell_$abc$177$auto$blifparse.cc:396:parse_blif$181" d="m0 0v25h15a15 12.5 0 0 0 0-25z"/>
<circle class="cell_$abc$177$auto$blifparse.cc:396:parse_blif$181" cx="34" cy="12.5" r="3"/>
</g>
<g transform="translate(12,22)" s:height="20" s:type="inputExt" s:width="30">
<text class="nodelabel cell_d" x="15" y="-4" s:attribute="ref">d</text>
<s:alias val="$_inputExt_"/>
<path class="cell_d" d="m0 0v20h15l15-10-15-10z"/>
</g>
<g transform="translate(12,132)" s:height="20" s:type="inputExt" s:width="30">
<text class="nodelabel cell_c" x="15" y="-4" s:attribute="ref">c</text>
<s:alias val="$_inputExt_"/>
<path class="cell_c" d="m0 0v20h15l15-10-15-10z"/>
</g>
<g transform="translate(224,102)" s:height="20" s:type="outputExt" s:width="30">
<text class="nodelabel cell_q" x="15" y="-4" s:attribute="ref">q</text>
<s:alias val="$_outputExt_"/>
<path class="cell_q" d="m30 0v20h-15l-15-10 15-10z"/>
</g>
<g transform="translate(224,37)" s:height="20" s:type="outputExt" s:width="30">
<text class="nodelabel cell_q0" x="15" y="-4" s:attribute="ref">q0</text>
<s:alias val="$_outputExt_"/>
<path class="cell_q0" d="m30 0v20h-15l-15-10 15-10z"/>
</g>
<line class="net_4" x1="110" x2="128" y1="112" y2="112"/>
<line class="net_4" x1="128" x2="128" y1="112" y2="82"/>
<line class="net_4" x1="128" x2="72" y1="82" y2="82"/>
<line class="net_4" x1="72" x2="72" y1="82" y2="102"/>
<circle class="net_4" cx="128" cy="82" r="2"/>
<circle class="net_4" cx="128" cy="112" r="2"/>
<line class="net_4" x1="72" x2="90" y1="102" y2="102"/>
<line class="net_4" x1="110" x2="128" y1="112" y2="112"/>
<line class="net_4" x1="128" x2="128" y1="112" y2="54.5"/>
<line class="net_4" x1="128" x2="153" y1="54.5" y2="54.5"/>
<line class="net_4" x1="110" x2="224" y1="112" y2="112"/>
<line class="net_2" x1="40" x2="52" y1="32" y2="32"/>
<line class="net_2" x1="52" x2="52" y1="32" y2="122"/>
<circle class="net_2" cx="52" cy="32" r="2"/>
<line class="net_2" x1="52" x2="90" y1="122" y2="122"/>
<line class="net_2" x1="40" x2="85" y1="32" y2="32"/>
<line class="net_3" x1="40" x2="100" y1="142" y2="142"/>
<line class="net_3" x1="100" x2="100" y1="142" y2="127"/>
<line class="net_3" x1="40" x2="62" y1="142" y2="142"/>
<line class="net_3" x1="62" x2="62" y1="142" y2="47"/>
<circle class="net_3" cx="62" cy="142" r="2"/>
<line class="net_3" x1="62" x2="85" y1="47" y2="47"/>
<line class="net_6" x1="118" x2="153" y1="39.5" y2="39.5"/>
<line class="net_5" x1="189" x2="224" y1="47" y2="47"/>
</svg>
