<?xml version="1.0" encoding="UTF-8"?>
<svg width="232" height="66.5" xmlns="http://www.w3.org/2000/svg" xmlns:s="https://github.com/nturley/netlistsvg">
<style>svg {
    stroke:#000;
    fill:none;
  }
  text {
    fill:#000;
    stroke:none;
    font-size:10px;
    font-weight: bold;
    font-family: "Courier New", monospace;
  }
  .nodelabel {
    text-anchor: middle;
  }
  .inputPortLabel {
    text-anchor: end;
  }
  .splitjoinBody {
    fill:#000;
  }</style>
<g transform="translate(77,34.5)" s:height="20" s:type="not" s:width="30">
<s:alias val="$_NOT_"/>
<s:alias val="$not"/>
<s:alias val="$logic_not"/>
<path class="cell_$abc$157$auto$blifparse.cc:396:parse_blif$158" d="m0 0v20l20-10z"/>
<circle class="cell_$abc$157$auto$blifparse.cc:396:parse_blif$158" cx="23" cy="10" r="3"/>
</g>
<g transform="translate(12,34.5)" s:height="20" s:type="inputExt" s:width="30">
<text class="nodelabel cell_a" x="15" y="-4" s:attribute="ref">a</text>
<s:alias val="$_inputExt_"/>
<path class="cell_a" d="m0 0v20h15l15-10-15-10z"/>
</g>
<g transform="translate(190,24.5)" s:height="20" s:type="outputExt" s:width="30">
<text class="nodelabel cell_s" x="15" y="-4" s:attribute="ref">s</text>
<s:alias val="$_outputExt_"/>
<path class="cell_s" d="m30 0v20h-15l-15-10 15-10z"/>
</g>
<g transform="translate(149,14)" s:height="40" s:type="join" s:width="4">
<rect class="splitjoinBody" width="5" height="40" s:generic="body"/>
<s:alias val="$_join_"/>
<g transform="translate(0,10)" s:pid="in0" s:x="0" s:y="10">
<text class="inputPortLabel" x="-3" y="-4">0</text>
</g>
<g transform="translate(0,30)" s:pid="in0" s:x="0" s:y="10">
<text class="inputPortLabel" x="-3" y="-4">1</text>
</g>
</g>
<line class="net_2" x1="40" x2="77" y1="44.5" y2="44.5"/>
<line class="net_2" x1="40" x2="52" y1="44.5" y2="44.5"/>
<line class="net_2" x1="52" x2="52" y1="44.5" y2="23.5"/>
<line class="net_2" x1="52" x2="117" y1="23.5" y2="23.5"/>
<line class="net_2" x1="117" x2="117" y1="23.5" y2="24.5"/>
<circle class="net_2" cx="52" cy="44.5" r="2"/>
<line class="net_2" x1="117" x2="149" y1="24.5" y2="24.5"/>
<line class="net_2,3" x1="155" x2="190" y1="34.5" y2="34.5"/>
<line class="net_3" x1="102" x2="149" y1="44.5" y2="44.5"/>
</svg>
