<svg xmlns="http://www.w3.org/2000/svg" xmlns:xlink="http://www.w3.org/1999/xlink" xmlns:s="https://github.com/nturley/netlistsvg" width="356" height="159.5">
  <style>svg {
    stroke:#000;
    fill:none;
  }
  text {
    fill:#000;
    stroke:none;
    font-size:10px;
    font-weight: bold;
    font-family: "Courier New", monospace;
  }
  .nodelabel {
    text-anchor: middle;
  }
  .inputPortLabel {
    text-anchor: end;
  }
  .splitjoinBody {
    fill:#000;
  }</style>
  <g s:type="not" transform="translate(77,62.5)" s:width="30" s:height="20" id="cell_$abc$126$auto$blifparse.cc:396:parse_blif$127">
    <s:alias val="$_NOT_"/>
    <s:alias val="$not"/>
    <s:alias val="$logic_not"/>
    <path d="M0,0 L0,20 L20,10 Z" class="cell_$abc$126$auto$blifparse.cc:396:parse_blif$127"/>
    <circle cx="23" cy="10" r="3" class="cell_$abc$126$auto$blifparse.cc:396:parse_blif$127"/>
    <g s:x="0" s:y="10" s:pid="A"/>
    <g s:x="25" s:y="10" s:pid="Y"/>
  </g>
  <g s:type="generic" transform="translate(149,62)" s:width="30" s:height="40" id="cell_dl">
    <text x="15" y="-4" class="nodelabel cell_dl" s:attribute="ref">d_latch</text>
    <rect width="30" height="40" s:generic="body" class="cell_dl"/>
    <g transform="translate(0,10)" s:x="0" s:y="10" s:pid="in0" id="port_dl~c">
      <text x="-3" y="-4" class="inputPortLabel cell_dl">c</text>
    </g>
    <g transform="translate(0,30)" s:x="0" s:y="10" s:pid="in0" id="port_dl~d">
      <text x="-3" y="-4" class="inputPortLabel cell_dl">d</text>
    </g>
    <g transform="translate(30,10)" s:x="30" s:y="10" s:pid="out0" id="port_dl~q">
      <text x="5" y="-4" style="fill:#000; stroke:none" class="cell_dl">q</text>
    </g>
    <g transform="translate(30,30)" s:x="30" s:y="10" s:pid="out0" id="port_dl~q0">
      <text x="5" y="-4" style="fill:#000; stroke:none" class="cell_dl">q0</text>
    </g>
  </g>
  <g s:type="generic" transform="translate(235,22)" s:width="30" s:height="40" id="cell_srl">
    <text x="15" y="-4" class="nodelabel cell_srl" s:attribute="ref">sr_latch</text>
    <rect width="30" height="60" s:generic="body" class="cell_srl"/>
    <g transform="translate(0,10)" s:x="0" s:y="10" s:pid="in0" id="port_srl~c">
      <text x="-3" y="-4" class="inputPortLabel cell_srl">c</text>
    </g>
    <g transform="translate(0,30)" s:x="0" s:y="10" s:pid="in0" id="port_srl~r">
      <text x="-3" y="-4" class="inputPortLabel cell_srl">r</text>
    </g>
    <g transform="translate(0,50)" s:x="0" s:y="10" s:pid="in0" id="port_srl~s">
      <text x="-3" y="-4" class="inputPortLabel cell_srl">s</text>
    </g>
    <g transform="translate(30,10)" s:x="30" s:y="10" s:pid="out0" id="port_srl~q">
      <text x="5" y="-4" style="fill:#000; stroke:none" class="cell_srl">q</text>
    </g>
    <g transform="translate(30,30)" s:x="30" s:y="10" s:pid="out0" id="port_srl~q0">
      <text x="5" y="-4" style="fill:#000; stroke:none" class="cell_srl">q0</text>
    </g>
  </g>
  <g s:type="inputExt" transform="translate(77,127.5)" s:width="30" s:height="20" id="cell_d">
    <text x="15" y="-4" class="nodelabel cell_d" s:attribute="ref">d</text>
    <s:alias val="$_inputExt_"/>
    <path d="M0,0 L0,20 L15,20 L30,10 L15,0 Z" class="cell_d"/>
    <g s:x="28" s:y="10" s:pid="Y"/>
  </g>
  <g s:type="inputExt" transform="translate(12,31)" s:width="30" s:height="20" id="cell_c">
    <text x="15" y="-4" class="nodelabel cell_c" s:attribute="ref">c</text>
    <s:alias val="$_inputExt_"/>
    <path d="M0,0 L0,20 L15,20 L30,10 L15,0 Z" class="cell_c"/>
    <g s:x="28" s:y="10" s:pid="Y"/>
  </g>
  <g s:type="outputExt" transform="translate(314,22.5)" s:width="30" s:height="20" id="cell_q">
    <text x="15" y="-4" class="nodelabel cell_q" s:attribute="ref">q</text>
    <s:alias val="$_outputExt_"/>
    <path d="M30,0 L30,20 L15,20 L0,10 L15,0 Z" class="cell_q"/>
    <g s:x="0" s:y="10" s:pid="A"/>
  </g>
  <g s:type="outputExt" transform="translate(314,87.5)" s:width="30" s:height="20" id="cell_q0">
    <text x="15" y="-4" class="nodelabel cell_q0" s:attribute="ref">q0</text>
    <s:alias val="$_outputExt_"/>
    <path d="M30,0 L30,20 L15,20 L0,10 L15,0 Z" class="cell_q0"/>
    <g s:x="0" s:y="10" s:pid="A"/>
  </g>
  <line x1="40" x2="52" y1="41" y2="41" class="net_3"/>
  <line x1="52" x2="52" y1="41" y2="72.5" class="net_3"/>
  <circle cx="52" cy="41" r="2" style="fill:#000" class="net_3"/>
  <line x1="52" x2="77" y1="72.5" y2="72.5" class="net_3"/>
  <line x1="40" x2="203" y1="41" y2="41" class="net_3"/>
  <line x1="203" x2="203" y1="41" y2="32.5" class="net_3"/>
  <line x1="203" x2="235" y1="32.5" y2="32.5" class="net_3"/>
  <line x1="102" x2="149" y1="72.5" y2="72.5" class="net_6"/>
  <line x1="105" x2="117" y1="137.5" y2="137.5" class="net_2"/>
  <line x1="117" x2="117" y1="137.5" y2="92.5" class="net_2"/>
  <line x1="117" x2="149" y1="92.5" y2="92.5" class="net_2"/>
  <line x1="180" x2="203" y1="92.5" y2="92.5" class="net_8"/>
  <line x1="203" x2="203" y1="92.5" y2="52.5" class="net_8"/>
  <line x1="203" x2="235" y1="52.5" y2="52.5" class="net_8"/>
  <line x1="180" x2="235" y1="72.5" y2="72.5" class="net_7"/>
  <line x1="266" x2="314" y1="32.5" y2="32.5" class="net_4"/>
  <line x1="266" x2="289" y1="52.5" y2="52.5" class="net_5"/>
  <line x1="289" x2="289" y1="52.5" y2="97.5" class="net_5"/>
  <line x1="289" x2="314" y1="97.5" y2="97.5" class="net_5"/>
</svg>
