<?xml version="1.0" encoding="UTF-8"?>
<svg width="356" height="159.5" xmlns="http://www.w3.org/2000/svg" xmlns:s="https://github.com/nturley/netlistsvg">
<style>svg {
    stroke:#000;
    fill:none;
  }
  text {
    fill:#000;
    stroke:none;
    font-size:10px;
    font-weight: bold;
    font-family: "Courier New", monospace;
  }
  .nodelabel {
    text-anchor: middle;
  }
  .inputPortLabel {
    text-anchor: end;
  }
  .splitjoinBody {
    fill:#000;
  }</style>
<g transform="translate(77,62.5)" s:height="20" s:type="not" s:width="30">
<s:alias val="$_NOT_"/>
<s:alias val="$not"/>
<s:alias val="$logic_not"/>
<path class="cell_$abc$142$auto$blifparse.cc:396:parse_blif$143" d="m0 0v20l20-10z"/>
<circle class="cell_$abc$142$auto$blifparse.cc:396:parse_blif$143" cx="23" cy="10" r="3"/>
</g>
<g transform="translate(149,62)" s:height="40" s:type="generic" s:width="30">
<text class="nodelabel cell_dl" x="15" y="-4" s:attribute="ref">d_latch</text>
<rect class="cell_dl" width="30" height="40" s:generic="body"/>
<g transform="translate(0,10)" s:pid="in0" s:x="0" s:y="10">
<text class="inputPortLabel cell_dl" x="-3" y="-4">c</text>
</g>
<g transform="translate(0,30)" s:pid="in0" s:x="0" s:y="10">
<text class="inputPortLabel cell_dl" x="-3" y="-4">d</text>
</g>
<g transform="translate(30,10)" s:pid="out0" s:x="30" s:y="10">
<text class="cell_dl" x="5" y="-4">q</text>
</g>
<g transform="translate(30,30)" s:pid="out0" s:x="30" s:y="10">
<text class="cell_dl" x="5" y="-4">q0</text>
</g>
</g>
<g transform="translate(235,22)" s:height="40" s:type="generic" s:width="30">
<text class="nodelabel cell_srl" x="15" y="-4" s:attribute="ref">sr_latch</text>
<rect class="cell_srl" width="30" height="60" s:generic="body"/>
<g transform="translate(0,10)" s:pid="in0" s:x="0" s:y="10">
<text class="inputPortLabel cell_srl" x="-3" y="-4">c</text>
</g>
<g transform="translate(0,30)" s:pid="in0" s:x="0" s:y="10">
<text class="inputPortLabel cell_srl" x="-3" y="-4">r</text>
</g>
<g transform="translate(0,50)" s:pid="in0" s:x="0" s:y="10">
<text class="inputPortLabel cell_srl" x="-3" y="-4">s</text>
</g>
<g transform="translate(30,10)" s:pid="out0" s:x="30" s:y="10">
<text class="cell_srl" x="5" y="-4">q</text>
</g>
<g transform="translate(30,30)" s:pid="out0" s:x="30" s:y="10">
<text class="cell_srl" x="5" y="-4">q0</text>
</g>
</g>
<g transform="translate(77,127.5)" s:height="20" s:type="inputExt" s:width="30">
<text class="nodelabel cell_d" x="15" y="-4" s:attribute="ref">d</text>
<s:alias val="$_inputExt_"/>
<path class="cell_d" d="m0 0v20h15l15-10-15-10z"/>
</g>
<g transform="translate(12,31)" s:height="20" s:type="inputExt" s:width="30">
<text class="nodelabel cell_c" x="15" y="-4" s:attribute="ref">c</text>
<s:alias val="$_inputExt_"/>
<path class="cell_c" d="m0 0v20h15l15-10-15-10z"/>
</g>
<g transform="translate(314,22.5)" s:height="20" s:type="outputExt" s:width="30">
<text class="nodelabel cell_q" x="15" y="-4" s:attribute="ref">q</text>
<s:alias val="$_outputExt_"/>
<path class="cell_q" d="m30 0v20h-15l-15-10 15-10z"/>
</g>
<g transform="translate(314,87.5)" s:height="20" s:type="outputExt" s:width="30">
<text class="nodelabel cell_q0" x="15" y="-4" s:attribute="ref">q0</text>
<s:alias val="$_outputExt_"/>
<path class="cell_q0" d="m30 0v20h-15l-15-10 15-10z"/>
</g>
<line class="net_3" x1="40" x2="52" y1="41" y2="41"/>
<line class="net_3" x1="52" x2="52" y1="41" y2="72.5"/>
<circle class="net_3" cx="52" cy="41" r="2"/>
<line class="net_3" x1="52" x2="77" y1="72.5" y2="72.5"/>
<line class="net_3" x1="40" x2="203" y1="41" y2="41"/>
<line class="net_3" x1="203" x2="203" y1="41" y2="32.5"/>
<line class="net_3" x1="203" x2="235" y1="32.5" y2="32.5"/>
<line class="net_6" x1="102" x2="149" y1="72.5" y2="72.5"/>
<line class="net_2" x1="105" x2="117" y1="137.5" y2="137.5"/>
<line class="net_2" x1="117" x2="117" y1="137.5" y2="92.5"/>
<line class="net_2" x1="117" x2="149" y1="92.5" y2="92.5"/>
<line class="net_8" x1="180" x2="203" y1="92.5" y2="92.5"/>
<line class="net_8" x1="203" x2="203" y1="92.5" y2="52.5"/>
<line class="net_8" x1="203" x2="235" y1="52.5" y2="52.5"/>
<line class="net_7" x1="180" x2="235" y1="72.5" y2="72.5"/>
<line class="net_4" x1="266" x2="314" y1="32.5" y2="32.5"/>
<line class="net_5" x1="266" x2="289" y1="52.5" y2="52.5"/>
<line class="net_5" x1="289" x2="289" y1="52.5" y2="97.5"/>
<line class="net_5" x1="289" x2="314" y1="97.5" y2="97.5"/>
</svg>
