<svg xmlns="http://www.w3.org/2000/svg" xmlns:xlink="http://www.w3.org/1999/xlink" xmlns:s="https://github.com/nturley/netlistsvg" width="368" height="171.5">
  <style>svg {
    stroke:#000;
    fill:none;
  }
  text {
    fill:#000;
    stroke:none;
    font-size:10px;
    font-weight: bold;
    font-family: "Courier New", monospace;
  }
  .nodelabel {
    text-anchor: middle;
  }
  .inputPortLabel {
    text-anchor: end;
  }
  .splitjoinBody {
    fill:#000;
  }</style>
  <g s:type="or" transform="translate(261,19.5)" s:width="30" s:height="25" id="cell_$abc$102$auto$blifparse.cc:396:parse_blif$103">
    <s:alias val="$or"/>
    <s:alias val="$logic_or"/>
    <s:alias val="$_OR_"/>
    <path d="M0,25 L0,25 L15,25 A15 12.5 0 0 0 15,0 L0,0" class="cell_$abc$102$auto$blifparse.cc:396:parse_blif$103"/>
    <path d="M0,0 A30 25 0 0 1 0,25" class="cell_$abc$102$auto$blifparse.cc:396:parse_blif$103"/>
    <g s:x="3" s:y="5" s:pid="A"/>
    <g s:x="3" s:y="20" s:pid="B"/>
    <g s:x="30" s:y="12.5" s:pid="Y"/>
  </g>
  <g s:type="generic" transform="translate(96,29)" s:width="30" s:height="40" id="cell_ha1">
    <text x="15" y="-4" class="nodelabel cell_ha1" s:attribute="ref">halfadd</text>
    <rect width="30" height="40" s:generic="body" class="cell_ha1"/>
    <g transform="translate(0,10)" s:x="0" s:y="10" s:pid="in0" id="port_ha1~in1">
      <text x="-3" y="-4" class="inputPortLabel cell_ha1">in1</text>
    </g>
    <g transform="translate(0,30)" s:x="0" s:y="10" s:pid="in0" id="port_ha1~in2">
      <text x="-3" y="-4" class="inputPortLabel cell_ha1">in2</text>
    </g>
    <g transform="translate(30,10)" s:x="30" s:y="10" s:pid="out0" id="port_ha1~c">
      <text x="5" y="-4" style="fill:#000; stroke:none" class="cell_ha1">c</text>
    </g>
    <g transform="translate(30,30)" s:x="30" s:y="10" s:pid="out0" id="port_ha1~s">
      <text x="5" y="-4" style="fill:#000; stroke:none" class="cell_ha1">s</text>
    </g>
  </g>
  <g s:type="generic" transform="translate(188,116.5)" s:width="30" s:height="40" id="cell_ha2">
    <text x="15" y="-4" class="nodelabel cell_ha2" s:attribute="ref">halfadd</text>
    <rect width="30" height="40" s:generic="body" class="cell_ha2"/>
    <g transform="translate(0,10)" s:x="0" s:y="10" s:pid="in0" id="port_ha2~in1">
      <text x="-3" y="-4" class="inputPortLabel cell_ha2">in1</text>
    </g>
    <g transform="translate(0,30)" s:x="0" s:y="10" s:pid="in0" id="port_ha2~in2">
      <text x="-3" y="-4" class="inputPortLabel cell_ha2">in2</text>
    </g>
    <g transform="translate(30,10)" s:x="30" s:y="10" s:pid="out0" id="port_ha2~c">
      <text x="5" y="-4" style="fill:#000; stroke:none" class="cell_ha2">c</text>
    </g>
    <g transform="translate(30,30)" s:x="30" s:y="10" s:pid="out0" id="port_ha2~s">
      <text x="5" y="-4" style="fill:#000; stroke:none" class="cell_ha2">s</text>
    </g>
  </g>
  <g s:type="inputExt" transform="translate(96,117)" s:width="30" s:height="20" id="cell_c_in">
    <text x="15" y="-4" class="nodelabel cell_c_in" s:attribute="ref">c_in</text>
    <s:alias val="$_inputExt_"/>
    <path d="M0,0 L0,20 L15,20 L30,10 L15,0 Z" class="cell_c_in"/>
    <g s:x="28" s:y="10" s:pid="Y"/>
  </g>
  <g s:type="inputExt" transform="translate(12,29.5)" s:width="30" s:height="20" id="cell_a">
    <text x="15" y="-4" class="nodelabel cell_a" s:attribute="ref">a</text>
    <s:alias val="$_inputExt_"/>
    <path d="M0,0 L0,20 L15,20 L30,10 L15,0 Z" class="cell_a"/>
    <g s:x="28" s:y="10" s:pid="Y"/>
  </g>
  <g s:type="inputExt" transform="translate(12,94.5)" s:width="30" s:height="20" id="cell_b">
    <text x="15" y="-4" class="nodelabel cell_b" s:attribute="ref">b</text>
    <s:alias val="$_inputExt_"/>
    <path d="M0,0 L0,20 L15,20 L30,10 L15,0 Z" class="cell_b"/>
    <g s:x="28" s:y="10" s:pid="Y"/>
  </g>
  <g s:type="outputExt" transform="translate(326,137)" s:width="30" s:height="20" id="cell_s_out">
    <text x="15" y="-4" class="nodelabel cell_s_out" s:attribute="ref">s_out</text>
    <s:alias val="$_outputExt_"/>
    <path d="M30,0 L30,20 L15,20 L0,10 L15,0 Z" class="cell_s_out"/>
    <g s:x="0" s:y="10" s:pid="A"/>
  </g>
  <g s:type="outputExt" transform="translate(326,22)" s:width="30" s:height="20" id="cell_c_out">
    <text x="15" y="-4" class="nodelabel cell_c_out" s:attribute="ref">c_out</text>
    <s:alias val="$_outputExt_"/>
    <path d="M30,0 L30,20 L15,20 L0,10 L15,0 Z" class="cell_c_out"/>
    <g s:x="0" s:y="10" s:pid="A"/>
  </g>
  <line x1="219" x2="236" y1="127" y2="127" class="net_7"/>
  <line x1="236" x2="236" y1="127" y2="24.5" class="net_7"/>
  <line x1="236" x2="264" y1="24.5" y2="24.5" class="net_7"/>
  <line x1="127" x2="264" y1="39.5" y2="39.5" class="net_8"/>
  <line x1="40" x2="96" y1="39.5" y2="39.5" class="net_3"/>
  <line x1="40" x2="52" y1="104.5" y2="104.5" class="net_4"/>
  <line x1="52" x2="52" y1="104.5" y2="59.5" class="net_4"/>
  <line x1="52" x2="96" y1="59.5" y2="59.5" class="net_4"/>
  <line x1="124" x2="188" y1="127" y2="127" class="net_2"/>
  <line x1="127" x2="144" y1="59.5" y2="59.5" class="net_9"/>
  <line x1="144" x2="144" y1="59.5" y2="147" class="net_9"/>
  <line x1="144" x2="188" y1="147" y2="147" class="net_9"/>
  <line x1="219" x2="326" y1="147" y2="147" class="net_5"/>
  <line x1="291" x2="326" y1="32" y2="32" class="net_6"/>
</svg>
