<svg xmlns="http://www.w3.org/2000/svg" xmlns:xlink="http://www.w3.org/1999/xlink" xmlns:s="https://github.com/nturley/netlistsvg" width="336" height="222">
  <style>svg {
    stroke:#000;
    fill:none;
  }
  text {
    fill:#000;
    stroke:none;
    font-size:10px;
    font-weight: bold;
    font-family: "Courier New", monospace;
  }
  .nodelabel {
    text-anchor: middle;
  }
  .inputPortLabel {
    text-anchor: end;
  }
  .splitjoinBody {
    fill:#000;
  }</style>
  <g s:type="and" transform="translate(152,180)" s:width="30" s:height="25" id="cell_$abc$88$auto$blifparse.cc:396:parse_blif$89">
    <s:alias val="$and"/>
    <s:alias val="$logic_and"/>
    <s:alias val="$_AND_"/>
    <path d="M0,0 L0,25 L15,25 A15 12.5 0 0 0 15,0 Z" class="cell_$abc$88$auto$blifparse.cc:396:parse_blif$89"/>
    <g s:x="0" s:y="5" s:pid="A"/>
    <g s:x="0" s:y="20" s:pid="B"/>
    <g s:x="30" s:y="12.5" s:pid="Y"/>
  </g>
  <g s:type="reduce_nxor" transform="translate(77,35)" s:width="33" s:height="25" id="cell_$abc$88$auto$blifparse.cc:396:parse_blif$90">
    <s:alias val="$xnor"/>
    <s:alias val="$reduce_xnor"/>
    <s:alias val="$_XNOR_"/>
    <path d="M3,0 A30 25 0 0 1 3,25 A30 25 0 0 0 33,12.5 A30 25 0 0 0 3,0" class="cell_$abc$88$auto$blifparse.cc:396:parse_blif$90"/>
    <path d="M0,0 A30 25 0 0 1 0,25" class="cell_$abc$88$auto$blifparse.cc:396:parse_blif$90"/>
    <circle cx="35" cy="12.5" r="3" class="cell_$abc$88$auto$blifparse.cc:396:parse_blif$90"/>
    <g s:x="3" s:y="5" s:pid="A"/>
    <g s:x="3" s:y="20" s:pid="B"/>
    <g s:x="38" s:y="12.5" s:pid="Y"/>
  </g>
  <g s:type="nand" transform="translate(150,110)" s:width="30" s:height="25" id="cell_$abc$88$auto$blifparse.cc:396:parse_blif$91">
    <s:alias val="$nand"/>
    <s:alias val="$logic_nand"/>
    <s:alias val="$_NAND_"/>
    <s:alias val="$_ANDNOT_"/>
    <path d="M0,0 L0,25 L15,25 A15 12.5 0 0 0 15,0 Z" class="cell_$abc$88$auto$blifparse.cc:396:parse_blif$91"/>
    <circle cx="34" cy="12.5" r="3" class="cell_$abc$88$auto$blifparse.cc:396:parse_blif$91"/>
    <g s:x="0" s:y="5" s:pid="A"/>
    <g s:x="0" s:y="20" s:pid="B"/>
    <g s:x="36" s:y="12.5" s:pid="Y"/>
  </g>
  <g s:type="or" transform="translate(223.66666666666666,172.5)" s:width="30" s:height="25" id="cell_$abc$88$auto$blifparse.cc:396:parse_blif$92">
    <s:alias val="$or"/>
    <s:alias val="$logic_or"/>
    <s:alias val="$_OR_"/>
    <path d="M0,25 L0,25 L15,25 A15 12.5 0 0 0 15,0 L0,0" class="cell_$abc$88$auto$blifparse.cc:396:parse_blif$92"/>
    <path d="M0,0 A30 25 0 0 1 0,25" class="cell_$abc$88$auto$blifparse.cc:396:parse_blif$92"/>
    <g s:x="3" s:y="5" s:pid="A"/>
    <g s:x="3" s:y="20" s:pid="B"/>
    <g s:x="30" s:y="12.5" s:pid="Y"/>
  </g>
  <g s:type="reduce_nxor" transform="translate(221,79)" s:width="33" s:height="25" id="cell_$abc$88$auto$blifparse.cc:396:parse_blif$93">
    <s:alias val="$xnor"/>
    <s:alias val="$reduce_xnor"/>
    <s:alias val="$_XNOR_"/>
    <path d="M3,0 A30 25 0 0 1 3,25 A30 25 0 0 0 33,12.5 A30 25 0 0 0 3,0" class="cell_$abc$88$auto$blifparse.cc:396:parse_blif$93"/>
    <path d="M0,0 A30 25 0 0 1 0,25" class="cell_$abc$88$auto$blifparse.cc:396:parse_blif$93"/>
    <circle cx="35" cy="12.5" r="3" class="cell_$abc$88$auto$blifparse.cc:396:parse_blif$93"/>
    <g s:x="3" s:y="5" s:pid="A"/>
    <g s:x="3" s:y="20" s:pid="B"/>
    <g s:x="38" s:y="12.5" s:pid="Y"/>
  </g>
  <g s:type="generic" transform="translate(12,22)" s:width="30" s:height="40" id="cell_ha1">
    <text x="15" y="-4" class="nodelabel cell_ha1" s:attribute="ref">$scopeinfo</text>
    <rect width="30" height="0" s:generic="body" class="cell_ha1"/>
  </g>
  <g s:type="generic" transform="translate(54,22)" s:width="30" s:height="40" id="cell_ha2">
    <text x="15" y="-4" class="nodelabel cell_ha2" s:attribute="ref">$scopeinfo</text>
    <rect width="30" height="0" s:generic="body" class="cell_ha2"/>
  </g>
  <g s:type="inputExt" transform="translate(80,105)" s:width="30" s:height="20" id="cell_c_in">
    <text x="15" y="-4" class="nodelabel cell_c_in" s:attribute="ref">c_in</text>
    <s:alias val="$_inputExt_"/>
    <path d="M0,0 L0,20 L15,20 L30,10 L15,0 Z" class="cell_c_in"/>
    <g s:x="28" s:y="10" s:pid="Y"/>
  </g>
  <g s:type="inputExt" transform="translate(12,190)" s:width="30" s:height="20" id="cell_a">
    <text x="15" y="-4" class="nodelabel cell_a" s:attribute="ref">a</text>
    <s:alias val="$_inputExt_"/>
    <path d="M0,0 L0,20 L15,20 L30,10 L15,0 Z" class="cell_a"/>
    <g s:x="28" s:y="10" s:pid="Y"/>
  </g>
  <g s:type="inputExt" transform="translate(12,125)" s:width="30" s:height="20" id="cell_b">
    <text x="15" y="-4" class="nodelabel cell_b" s:attribute="ref">b</text>
    <s:alias val="$_inputExt_"/>
    <path d="M0,0 L0,20 L15,20 L30,10 L15,0 Z" class="cell_b"/>
    <g s:x="28" s:y="10" s:pid="Y"/>
  </g>
  <g s:type="outputExt" transform="translate(294,81.5)" s:width="30" s:height="20" id="cell_s_out">
    <text x="15" y="-4" class="nodelabel cell_s_out" s:attribute="ref">s_out</text>
    <s:alias val="$_outputExt_"/>
    <path d="M30,0 L30,20 L15,20 L0,10 L15,0 Z" class="cell_s_out"/>
    <g s:x="0" s:y="10" s:pid="A"/>
  </g>
  <g s:type="outputExt" transform="translate(294,175)" s:width="30" s:height="20" id="cell_c_out">
    <text x="15" y="-4" class="nodelabel cell_c_out" s:attribute="ref">c_out</text>
    <s:alias val="$_outputExt_"/>
    <path d="M30,0 L30,20 L15,20 L0,10 L15,0 Z" class="cell_c_out"/>
    <g s:x="0" s:y="10" s:pid="A"/>
  </g>
  <line x1="40" x2="125" y1="135" y2="135" class="net_4"/>
  <line x1="125" x2="125" y1="135" y2="185" class="net_4"/>
  <line x1="125" x2="152" y1="185" y2="185" class="net_4"/>
  <line x1="40" x2="52" y1="135" y2="135" class="net_4"/>
  <line x1="52" x2="52" y1="135" y2="40" class="net_4"/>
  <circle cx="52" cy="135" r="2" style="fill:#000" class="net_4"/>
  <line x1="52" x2="80" y1="40" y2="40" class="net_4"/>
  <line x1="40" x2="152" y1="200" y2="200" class="net_3"/>
  <line x1="40" x2="62" y1="200" y2="200" class="net_3"/>
  <line x1="62" x2="62" y1="200" y2="55" class="net_3"/>
  <circle cx="62" cy="200" r="2" style="fill:#000" class="net_3"/>
  <line x1="62" x2="80" y1="55" y2="55" class="net_3"/>
  <line x1="108" x2="150" y1="115" y2="115" class="net_2"/>
  <line x1="108" x2="135" y1="115" y2="115" class="net_2"/>
  <line x1="135" x2="135" y1="115" y2="99" class="net_2"/>
  <circle cx="135" cy="115" r="2" style="fill:#000" class="net_2"/>
  <line x1="135" x2="224" y1="99" y2="99" class="net_2"/>
  <line x1="115" x2="125" y1="47.5" y2="47.5" class="net_8"/>
  <line x1="125" x2="125" y1="47.5" y2="130" class="net_8"/>
  <circle cx="125" cy="47.5" r="2" style="fill:#000" class="net_8"/>
  <line x1="125" x2="150" y1="130" y2="130" class="net_8"/>
  <line x1="115" x2="196" y1="47.5" y2="47.5" class="net_8"/>
  <line x1="196" x2="196" y1="47.5" y2="84" class="net_8"/>
  <line x1="196" x2="224" y1="84" y2="84" class="net_8"/>
  <line x1="186" x2="196" y1="122.5" y2="122.5" class="net_9"/>
  <line x1="196" x2="196" y1="122.5" y2="177.5" class="net_9"/>
  <line x1="196" x2="226.66666666666666" y1="177.5" y2="177.5" class="net_9"/>
  <line x1="182" x2="226.66666666666666" y1="192.5" y2="192.5" class="net_7"/>
  <line x1="259" x2="294" y1="91.5" y2="91.5" class="net_5"/>
  <line x1="253.66666666666666" x2="294" y1="185" y2="185" class="net_6"/>
</svg>
