<?xml version="1.0" encoding="UTF-8"?>
<svg width="174" height="184" xmlns="http://www.w3.org/2000/svg" xmlns:s="https://github.com/nturley/netlistsvg">
<style>svg {
    stroke:#000;
    fill:none;
  }
  text {
    fill:#000;
    stroke:none;
    font-size:10px;
    font-weight: bold;
    font-family: "Courier New", monospace;
  }
  .nodelabel {
    text-anchor: middle;
  }
  .inputPortLabel {
    text-anchor: end;
  }
  .splitjoinBody {
    fill:#000;
  }</style>
<g transform="translate(77,22)" s:height="40" s:type="mux" s:width="20">
<s:alias val="$pmux"/>
<s:alias val="$mux"/>
<s:alias val="$_MUX_"/>
<path class="cell_$abc$131$auto$blifparse.cc:396:parse_blif$132" d="m0 0 20 10v20l-20 10z"/>
</g>
<g transform="translate(12,152)" s:height="20" s:type="inputExt" s:width="30">
<text class="nodelabel cell_s" x="15" y="-4" s:attribute="ref">s</text>
<s:alias val="$_inputExt_"/>
<path class="cell_s" d="m0 0v20h15l15-10-15-10z"/>
</g>
<g transform="translate(12,22)" s:height="20" s:type="inputExt" s:width="30">
<text class="nodelabel cell_a" x="15" y="-4" s:attribute="ref">a</text>
<s:alias val="$_inputExt_"/>
<path class="cell_a" d="m0 0v20h15l15-10-15-10z"/>
</g>
<g transform="translate(12,87)" s:height="20" s:type="inputExt" s:width="30">
<text class="nodelabel cell_b" x="15" y="-4" s:attribute="ref">b</text>
<s:alias val="$_inputExt_"/>
<path class="cell_b" d="m0 0v20h15l15-10-15-10z"/>
</g>
<g transform="translate(132,32)" s:height="20" s:type="outputExt" s:width="30">
<text class="nodelabel cell_z" x="15" y="-4" s:attribute="ref">z</text>
<s:alias val="$_outputExt_"/>
<path class="cell_z" d="m30 0v20h-15l-15-10 15-10z"/>
</g>
<line class="net_3" x1="40" x2="77" y1="32" y2="32"/>
<line class="net_4" x1="40" x2="52" y1="97" y2="97"/>
<line class="net_4" x1="52" x2="52" y1="97" y2="52"/>
<line class="net_4" x1="52" x2="77" y1="52" y2="52"/>
<line class="net_2" x1="40" x2="87" y1="162" y2="162"/>
<line class="net_2" x1="87" x2="87" y1="162" y2="57"/>
<line class="net_5" x1="97" x2="132" y1="42" y2="42"/>
</svg>
