<?xml version="1.0" encoding="UTF-8"?>
<svg width="585" height="853" xmlns="http://www.w3.org/2000/svg" xmlns:s="https://github.com/nturley/netlistsvg">
<style>svg {
    stroke:#000;
    fill:none;
  }
  text {
    fill:#000;
    stroke:none;
    font-size:10px;
    font-weight: bold;
    font-family: "Courier New", monospace;
  }
  .nodelabel {
    text-anchor: middle;
  }
  .inputPortLabel {
    text-anchor: end;
  }
  .splitjoinBody {
    fill:#000;
  }</style>
<g transform="translate(129,278.5)" s:height="20" s:type="not" s:width="30">
<s:alias val="$_NOT_"/>
<s:alias val="$not"/>
<s:alias val="$logic_not"/>
<path class="cell_$abc$200$auto$blifparse.cc:396:parse_blif$201" d="m0 0v20l20-10z"/>
<circle class="cell_$abc$200$auto$blifparse.cc:396:parse_blif$201" cx="23" cy="10" r="3"/>
</g>
<g transform="translate(129,150.5)" s:height="20" s:type="not" s:width="30">
<s:alias val="$_NOT_"/>
<s:alias val="$not"/>
<s:alias val="$logic_not"/>
<path class="cell_$abc$200$auto$blifparse.cc:396:parse_blif$202" d="m0 0v20l20-10z"/>
<circle class="cell_$abc$200$auto$blifparse.cc:396:parse_blif$202" cx="23" cy="10" r="3"/>
</g>
<g transform="translate(129,109.5)" s:height="20" s:type="not" s:width="30">
<s:alias val="$_NOT_"/>
<s:alias val="$not"/>
<s:alias val="$logic_not"/>
<path class="cell_$abc$200$auto$blifparse.cc:396:parse_blif$203" d="m0 0v20l20-10z"/>
<circle class="cell_$abc$200$auto$blifparse.cc:396:parse_blif$203" cx="23" cy="10" r="3"/>
</g>
<g transform="translate(390,540)" s:height="40" s:type="generic" s:width="30">
<text class="nodelabel cell_a" x="15" y="-4" s:attribute="ref">and8b</text>
<rect class="cell_a" width="30" height="40" s:generic="body"/>
<g transform="translate(0,10)" s:pid="in0" s:x="0" s:y="10">
<text class="inputPortLabel cell_a" x="-3" y="-4">x</text>
</g>
<g transform="translate(0,30)" s:pid="in0" s:x="0" s:y="10">
<text class="inputPortLabel cell_a" x="-3" y="-4">y</text>
</g>
<g transform="translate(30,10)" s:pid="out0" s:x="30" s:y="10">
<text class="cell_a" x="5" y="-4">z</text>
</g>
</g>
<g transform="translate(216,130)" s:height="40" s:type="generic" s:width="30">
<text class="nodelabel cell_enable1" x="15" y="-4" s:attribute="ref">and31</text>
<rect class="cell_enable1" width="30" height="60" s:generic="body"/>
<g transform="translate(0,10)" s:pid="in0" s:x="0" s:y="10">
<text class="inputPortLabel cell_enable1" x="-3" y="-4">a</text>
</g>
<g transform="translate(0,30)" s:pid="in0" s:x="0" s:y="10">
<text class="inputPortLabel cell_enable1" x="-3" y="-4">b</text>
</g>
<g transform="translate(0,50)" s:pid="in0" s:x="0" s:y="10">
<text class="inputPortLabel cell_enable1" x="-3" y="-4">c</text>
</g>
<g transform="translate(30,10)" s:pid="out0" s:x="30" s:y="10">
<text class="cell_enable1" x="5" y="-4">z</text>
</g>
</g>
<g transform="translate(216,22)" s:height="40" s:type="generic" s:width="30">
<text class="nodelabel cell_enable2" x="15" y="-4" s:attribute="ref">and31</text>
<rect class="cell_enable2" width="30" height="60" s:generic="body"/>
<g transform="translate(0,10)" s:pid="in0" s:x="0" s:y="10">
<text class="inputPortLabel cell_enable2" x="-3" y="-4">a</text>
</g>
<g transform="translate(0,30)" s:pid="in0" s:x="0" s:y="10">
<text class="inputPortLabel cell_enable2" x="-3" y="-4">b</text>
</g>
<g transform="translate(0,50)" s:pid="in0" s:x="0" s:y="10">
<text class="inputPortLabel cell_enable2" x="-3" y="-4">c</text>
</g>
<g transform="translate(30,10)" s:pid="out0" s:x="30" s:y="10">
<text class="cell_enable2" x="5" y="-4">z</text>
</g>
</g>
<g transform="translate(216,238)" s:height="40" s:type="generic" s:width="30">
<text class="nodelabel cell_enable3" x="15" y="-4" s:attribute="ref">and31</text>
<rect class="cell_enable3" width="30" height="60" s:generic="body"/>
<g transform="translate(0,10)" s:pid="in0" s:x="0" s:y="10">
<text class="inputPortLabel cell_enable3" x="-3" y="-4">a</text>
</g>
<g transform="translate(0,30)" s:pid="in0" s:x="0" s:y="10">
<text class="inputPortLabel cell_enable3" x="-3" y="-4">b</text>
</g>
<g transform="translate(0,50)" s:pid="in0" s:x="0" s:y="10">
<text class="inputPortLabel cell_enable3" x="-3" y="-4">c</text>
</g>
<g transform="translate(30,10)" s:pid="out0" s:x="30" s:y="10">
<text class="cell_enable3" x="5" y="-4">z</text>
</g>
</g>
<g transform="translate(216,346)" s:height="40" s:type="generic" s:width="30">
<text class="nodelabel cell_enable4" x="15" y="-4" s:attribute="ref">and31</text>
<rect class="cell_enable4" width="30" height="60" s:generic="body"/>
<g transform="translate(0,10)" s:pid="in0" s:x="0" s:y="10">
<text class="inputPortLabel cell_enable4" x="-3" y="-4">a</text>
</g>
<g transform="translate(0,30)" s:pid="in0" s:x="0" s:y="10">
<text class="inputPortLabel cell_enable4" x="-3" y="-4">b</text>
</g>
<g transform="translate(0,50)" s:pid="in0" s:x="0" s:y="10">
<text class="inputPortLabel cell_enable4" x="-3" y="-4">c</text>
</g>
<g transform="translate(30,10)" s:pid="out0" s:x="30" s:y="10">
<text class="cell_enable4" x="5" y="-4">z</text>
</g>
</g>
<g transform="translate(216,454)" s:height="40" s:type="generic" s:width="30">
<text class="nodelabel cell_enable5" x="15" y="-4" s:attribute="ref">and31</text>
<rect class="cell_enable5" width="30" height="60" s:generic="body"/>
<g transform="translate(0,10)" s:pid="in0" s:x="0" s:y="10">
<text class="inputPortLabel cell_enable5" x="-3" y="-4">a</text>
</g>
<g transform="translate(0,30)" s:pid="in0" s:x="0" s:y="10">
<text class="inputPortLabel cell_enable5" x="-3" y="-4">b</text>
</g>
<g transform="translate(0,50)" s:pid="in0" s:x="0" s:y="10">
<text class="inputPortLabel cell_enable5" x="-3" y="-4">c</text>
</g>
<g transform="translate(30,10)" s:pid="out0" s:x="30" s:y="10">
<text class="cell_enable5" x="5" y="-4">z</text>
</g>
</g>
<g transform="translate(216,562)" s:height="40" s:type="generic" s:width="30">
<text class="nodelabel cell_enable6" x="15" y="-4" s:attribute="ref">and31</text>
<rect class="cell_enable6" width="30" height="60" s:generic="body"/>
<g transform="translate(0,10)" s:pid="in0" s:x="0" s:y="10">
<text class="inputPortLabel cell_enable6" x="-3" y="-4">a</text>
</g>
<g transform="translate(0,30)" s:pid="in0" s:x="0" s:y="10">
<text class="inputPortLabel cell_enable6" x="-3" y="-4">b</text>
</g>
<g transform="translate(0,50)" s:pid="in0" s:x="0" s:y="10">
<text class="inputPortLabel cell_enable6" x="-3" y="-4">c</text>
</g>
<g transform="translate(30,10)" s:pid="out0" s:x="30" s:y="10">
<text class="cell_enable6" x="5" y="-4">z</text>
</g>
</g>
<g transform="translate(216,670)" s:height="40" s:type="generic" s:width="30">
<text class="nodelabel cell_enable7" x="15" y="-4" s:attribute="ref">and31</text>
<rect class="cell_enable7" width="30" height="60" s:generic="body"/>
<g transform="translate(0,10)" s:pid="in0" s:x="0" s:y="10">
<text class="inputPortLabel cell_enable7" x="-3" y="-4">a</text>
</g>
<g transform="translate(0,30)" s:pid="in0" s:x="0" s:y="10">
<text class="inputPortLabel cell_enable7" x="-3" y="-4">b</text>
</g>
<g transform="translate(0,50)" s:pid="in0" s:x="0" s:y="10">
<text class="inputPortLabel cell_enable7" x="-3" y="-4">c</text>
</g>
<g transform="translate(30,10)" s:pid="out0" s:x="30" s:y="10">
<text class="cell_enable7" x="5" y="-4">z</text>
</g>
</g>
<g transform="translate(216,778)" s:height="40" s:type="generic" s:width="30">
<text class="nodelabel cell_enable8" x="15" y="-4" s:attribute="ref">and31</text>
<rect class="cell_enable8" width="30" height="60" s:generic="body"/>
<g transform="translate(0,10)" s:pid="in0" s:x="0" s:y="10">
<text class="inputPortLabel cell_enable8" x="-3" y="-4">a</text>
</g>
<g transform="translate(0,30)" s:pid="in0" s:x="0" s:y="10">
<text class="inputPortLabel cell_enable8" x="-3" y="-4">b</text>
</g>
<g transform="translate(0,50)" s:pid="in0" s:x="0" s:y="10">
<text class="inputPortLabel cell_enable8" x="-3" y="-4">c</text>
</g>
<g transform="translate(30,10)" s:pid="out0" s:x="30" s:y="10">
<text class="cell_enable8" x="5" y="-4">z</text>
</g>
</g>
<g transform="translate(470,540)" s:height="40" s:type="generic" s:width="30">
<text class="nodelabel cell_o" x="15" y="-4" s:attribute="ref">or81</text>
<rect class="cell_o" width="30" height="20" s:generic="body"/>
<g transform="translate(0,10)" s:pid="in0" s:x="0" s:y="10">
<text class="inputPortLabel cell_o" x="-3" y="-4">x</text>
</g>
<g transform="translate(30,10)" s:pid="out0" s:x="30" s:y="10">
<text class="cell_o" x="5" y="-4">z</text>
</g>
</g>
<g transform="translate(12,424.5)" s:height="20" s:type="inputExt" s:width="30">
<text class="nodelabel cell_s" x="15" y="-4" s:attribute="ref">s</text>
<s:alias val="$_inputExt_"/>
<path class="cell_s" d="m0 0v20h15l15-10-15-10z"/>
</g>
<g transform="translate(318,110.5)" s:height="20" s:type="inputExt" s:width="30">
<text class="nodelabel cell_x" x="15" y="-4" s:attribute="ref">x</text>
<s:alias val="$_inputExt_"/>
<path class="cell_x" d="m0 0v20h15l15-10-15-10z"/>
</g>
<g transform="translate(543,540.5)" s:height="20" s:type="outputExt" s:width="30">
<text class="nodelabel cell_z" x="15" y="-4" s:attribute="ref">z</text>
<s:alias val="$_outputExt_"/>
<path class="cell_z" d="m30 0v20h-15l-15-10 15-10z"/>
</g>
<g transform="translate(321.71 550)" s:height="40" s:type="join" s:width="4">
<rect class="splitjoinBody" width="5" height="160" s:generic="body"/>
<s:alias val="$_join_"/>
<g transform="translate(0,10)" s:pid="in0" s:x="0" s:y="10">
<text class="inputPortLabel" x="-3" y="-4">0</text>
</g>
<g transform="translate(0,30)" s:pid="in0" s:x="0" s:y="10">
<text class="inputPortLabel" x="-3" y="-4">1</text>
</g>
<g transform="translate(0,50)" s:pid="in0" s:x="0" s:y="10">
<text class="inputPortLabel" x="-3" y="-4">2</text>
</g>
<g transform="translate(0,70)" s:pid="in0" s:x="0" s:y="10">
<text class="inputPortLabel" x="-3" y="-4">3</text>
</g>
<g transform="translate(0,90)" s:pid="in0" s:x="0" s:y="10">
<text class="inputPortLabel" x="-3" y="-4">4</text>
</g>
<g transform="translate(0,110)" s:pid="in0" s:x="0" s:y="10">
<text class="inputPortLabel" x="-3" y="-4">5</text>
</g>
<g transform="translate(0,130)" s:pid="in0" s:x="0" s:y="10">
<text class="inputPortLabel" x="-3" y="-4">6</text>
</g>
<g transform="translate(0,150)" s:pid="in0" s:x="0" s:y="10">
<text class="inputPortLabel" x="-3" y="-4">7</text>
</g>
</g>
<g transform="translate(77,414)" s:height="40" s:type="split" s:width="5">
<rect class="splitjoinBody" width="5" height="60" s:generic="body"/>
<s:alias val="$_split_"/>
<g transform="translate(4,10)" s:pid="out0" s:x="4" s:y="10">
<text x="5" y="-4">0</text>
</g>
<g transform="translate(4,30)" s:pid="out0" s:x="4" s:y="10">
<text x="5" y="-4">1</text>
</g>
<g transform="translate(4,50)" s:pid="out0" s:x="4" s:y="10">
<text x="5" y="-4">2</text>
</g>
</g>
<line class="net_2" x1="82" x2="99" y1="424.5" y2="424.5"/>
<line class="net_2" x1="99" x2="99" y1="424.5" y2="288.5"/>
<circle class="net_2" cx="99" cy="424.5" r="2"/>
<circle class="net_2" cx="99" cy="288.5" r="2"/>
<line class="net_2" x1="99" x2="129" y1="288.5" y2="288.5"/>
<line class="net_2" x1="82" x2="99" y1="424.5" y2="424.5"/>
<line class="net_2" x1="99" x2="99" y1="424.5" y2="72.5"/>
<line class="net_2" x1="99" x2="216" y1="72.5" y2="72.5"/>
<line class="net_2" x1="82" x2="99" y1="424.5" y2="424.5"/>
<line class="net_2" x1="99" x2="99" y1="424.5" y2="396.5"/>
<circle class="net_2" cx="99" cy="396.5" r="2"/>
<line class="net_2" x1="99" x2="216" y1="396.5" y2="396.5"/>
<line class="net_2" x1="82" x2="99" y1="424.5" y2="424.5"/>
<line class="net_2" x1="99" x2="99" y1="424.5" y2="612.5"/>
<circle class="net_2" cx="99" cy="612.5" r="2"/>
<line class="net_2" x1="99" x2="216" y1="612.5" y2="612.5"/>
<line class="net_2" x1="82" x2="99" y1="424.5" y2="424.5"/>
<line class="net_2" x1="99" x2="99" y1="424.5" y2="828.5"/>
<line class="net_2" x1="99" x2="216" y1="828.5" y2="828.5"/>
<line class="net_3" x1="82" x2="119" y1="444.5" y2="444.5"/>
<line class="net_3" x1="119" x2="119" y1="444.5" y2="160.5"/>
<circle class="net_3" cx="119" cy="444.5" r="2"/>
<circle class="net_3" cx="119" cy="160.5" r="2"/>
<line class="net_3" x1="119" x2="129" y1="160.5" y2="160.5"/>
<line class="net_3" x1="82" x2="119" y1="444.5" y2="444.5"/>
<line class="net_3" x1="119" x2="119" y1="444.5" y2="139.5"/>
<line class="net_3" x1="119" x2="169" y1="139.5" y2="139.5"/>
<line class="net_3" x1="169" x2="169" y1="139.5" y2="268.5"/>
<line class="net_3" x1="169" x2="216" y1="268.5" y2="268.5"/>
<line class="net_3" x1="82" x2="119" y1="444.5" y2="444.5"/>
<line class="net_3" x1="119" x2="119" y1="444.5" y2="376.5"/>
<circle class="net_3" cx="119" cy="376.5" r="2"/>
<line class="net_3" x1="119" x2="216" y1="376.5" y2="376.5"/>
<line class="net_3" x1="82" x2="119" y1="444.5" y2="444.5"/>
<line class="net_3" x1="119" x2="119" y1="444.5" y2="700.5"/>
<circle class="net_3" cx="119" cy="700.5" r="2"/>
<line class="net_3" x1="119" x2="216" y1="700.5" y2="700.5"/>
<line class="net_3" x1="82" x2="119" y1="444.5" y2="444.5"/>
<line class="net_3" x1="119" x2="119" y1="444.5" y2="808.5"/>
<line class="net_3" x1="119" x2="216" y1="808.5" y2="808.5"/>
<line class="net_4" x1="82" x2="109" y1="464.5" y2="464.5"/>
<line class="net_4" x1="109" x2="109" y1="464.5" y2="119.5"/>
<circle class="net_4" cx="109" cy="464.5" r="2"/>
<line class="net_4" x1="109" x2="129" y1="119.5" y2="119.5"/>
<line class="net_4" x1="82" x2="216" y1="464.5" y2="464.5"/>
<line class="net_4" x1="82" x2="199" y1="464.5" y2="464.5"/>
<line class="net_4" x1="199" x2="199" y1="464.5" y2="572.5"/>
<circle class="net_4" cx="199" cy="464.5" r="2"/>
<line class="net_4" x1="199" x2="216" y1="572.5" y2="572.5"/>
<line class="net_4" x1="82" x2="109" y1="464.5" y2="464.5"/>
<line class="net_4" x1="109" x2="109" y1="464.5" y2="680.5"/>
<circle class="net_4" cx="109" cy="680.5" r="2"/>
<line class="net_4" x1="109" x2="216" y1="680.5" y2="680.5"/>
<line class="net_4" x1="82" x2="109" y1="464.5" y2="464.5"/>
<line class="net_4" x1="109" x2="109" y1="464.5" y2="788.5"/>
<line class="net_4" x1="109" x2="216" y1="788.5" y2="788.5"/>
<line class="net_5,6,7,8,9,10,11,12" x1="346" x2="358" y1="120.5" y2="120.5"/>
<line class="net_5,6,7,8,9,10,11,12" x1="358" x2="358" y1="120.5" y2="550.5"/>
<line class="net_5,6,7,8,9,10,11,12" x1="358" x2="390" y1="550.5" y2="550.5"/>
<line class="net_17,18,19,20,21,22,23,24" x1="327.71" x2="390" y1="570.5" y2="570.5"/>
<line class="net_16" x1="154" x2="199" y1="119.5" y2="119.5"/>
<line class="net_16" x1="199" x2="199" y1="119.5" y2="140.5"/>
<circle class="net_16" cx="199" cy="119.5" r="2"/>
<circle class="net_16" cx="199" cy="140.5" r="2"/>
<line class="net_16" x1="199" x2="216" y1="140.5" y2="140.5"/>
<line class="net_16" x1="154" x2="199" y1="119.5" y2="119.5"/>
<line class="net_16" x1="199" x2="199" y1="119.5" y2="32.5"/>
<line class="net_16" x1="199" x2="216" y1="32.5" y2="32.5"/>
<line class="net_16" x1="154" x2="199" y1="119.5" y2="119.5"/>
<line class="net_16" x1="199" x2="199" y1="119.5" y2="248.5"/>
<circle class="net_16" cx="199" cy="248.5" r="2"/>
<line class="net_16" x1="199" x2="216" y1="248.5" y2="248.5"/>
<line class="net_16" x1="154" x2="199" y1="119.5" y2="119.5"/>
<line class="net_16" x1="199" x2="199" y1="119.5" y2="356.5"/>
<line class="net_16" x1="199" x2="216" y1="356.5" y2="356.5"/>
<line class="net_15" x1="154" x2="216" y1="160.5" y2="160.5"/>
<line class="net_15" x1="154" x2="179" y1="160.5" y2="160.5"/>
<line class="net_15" x1="179" x2="179" y1="160.5" y2="52.5"/>
<circle class="net_15" cx="179" cy="160.5" r="2"/>
<line class="net_15" x1="179" x2="216" y1="52.5" y2="52.5"/>
<line class="net_15" x1="154" x2="179" y1="160.5" y2="160.5"/>
<line class="net_15" x1="179" x2="179" y1="160.5" y2="484.5"/>
<circle class="net_15" cx="179" cy="484.5" r="2"/>
<line class="net_15" x1="179" x2="216" y1="484.5" y2="484.5"/>
<line class="net_15" x1="154" x2="179" y1="160.5" y2="160.5"/>
<line class="net_15" x1="179" x2="179" y1="160.5" y2="592.5"/>
<line class="net_15" x1="179" x2="216" y1="592.5" y2="592.5"/>
<line class="net_14" x1="154" x2="189" y1="288.5" y2="288.5"/>
<line class="net_14" x1="189" x2="189" y1="288.5" y2="180.5"/>
<circle class="net_14" cx="189" cy="288.5" r="2"/>
<line class="net_14" x1="189" x2="216" y1="180.5" y2="180.5"/>
<line class="net_14" x1="154" x2="216" y1="288.5" y2="288.5"/>
<line class="net_14" x1="154" x2="189" y1="288.5" y2="288.5"/>
<line class="net_14" x1="189" x2="189" y1="288.5" y2="504.5"/>
<circle class="net_14" cx="189" cy="504.5" r="2"/>
<line class="net_14" x1="189" x2="216" y1="504.5" y2="504.5"/>
<line class="net_14" x1="154" x2="189" y1="288.5" y2="288.5"/>
<line class="net_14" x1="189" x2="189" y1="288.5" y2="720.5"/>
<line class="net_14" x1="189" x2="216" y1="720.5" y2="720.5"/>
<line class="net_25,26,27,28,29,30,31,32" x1="421" x2="470" y1="550.5" y2="550.5"/>
<line class="net_13" x1="501" x2="543" y1="550.5" y2="550.5"/>
<line class="net_17" x1="247" x2="322.21" y1="140.5" y2="140.5"/>
<line class="net_17" x1="322.21" x2="322.21" y1="140.5" y2="560"/>
<line class="net_18" x1="247" x2="308" y1="32.5" y2="32.5"/>
<line class="net_18" x1="308" x2="308" y1="32.5" y2="580.5"/>
<line class="net_18" x1="308" x2="321.71" y1="580.5" y2="580.5"/>
<line class="net_19" x1="247" x2="298" y1="248.5" y2="248.5"/>
<line class="net_19" x1="298" x2="298" y1="248.5" y2="600.5"/>
<line class="net_19" x1="298" x2="321.71" y1="600.5" y2="600.5"/>
<line class="net_20" x1="247" x2="288" y1="356.5" y2="356.5"/>
<line class="net_20" x1="288" x2="288" y1="356.5" y2="620.5"/>
<line class="net_20" x1="288" x2="321.71" y1="620.5" y2="620.5"/>
<line class="net_21" x1="247" x2="278" y1="464.5" y2="464.5"/>
<line class="net_21" x1="278" x2="278" y1="464.5" y2="640.5"/>
<line class="net_21" x1="278" x2="321.71" y1="640.5" y2="640.5"/>
<line class="net_22" x1="247" x2="268" y1="572.5" y2="572.5"/>
<line class="net_22" x1="268" x2="268" y1="572.5" y2="660.5"/>
<line class="net_22" x1="268" x2="321.71" y1="660.5" y2="660.5"/>
<line class="net_23" x1="247" x2="321.71" y1="680.5" y2="680.5"/>
<line class="net_24" x1="247" x2="322.21" y1="788.5" y2="788.5"/>
<line class="net_24" x1="322.21" x2="322.21" y1="788.5" y2="701"/>
<line class="net_2,3,4" x1="40" x2="77" y1="434.5" y2="434.5"/>
</svg>
