<?xml version="1.0" encoding="UTF-8"?>
<svg width="332" height="181.5" xmlns="http://www.w3.org/2000/svg" xmlns:s="https://github.com/nturley/netlistsvg">
<style>svg {
    stroke:#000;
    fill:none;
  }
  text {
    fill:#000;
    stroke:none;
    font-size:10px;
    font-weight: bold;
    font-family: "Courier New", monospace;
  }
  .nodelabel {
    text-anchor: middle;
  }
  .inputPortLabel {
    text-anchor: end;
  }
  .splitjoinBody {
    fill:#000;
  }</style>
<g transform="translate(77,97)" s:height="25" s:type="nand" s:width="30">
<s:alias val="$nand"/>
<s:alias val="$logic_nand"/>
<s:alias val="$_NAND_"/>
<s:alias val="$_ANDNOT_"/>
<path class="cell_$abc$176$auto$blifparse.cc:396:parse_blif$178" d="m0 0v25h15a15 12.5 0 0 0 0-25z"/>
<circle class="cell_$abc$176$auto$blifparse.cc:396:parse_blif$178" cx="34" cy="12.5" r="3"/>
</g>
<g transform="translate(150,27)" s:height="25" s:type="and" s:width="30">
<s:alias val="$and"/>
<s:alias val="$logic_and"/>
<s:alias val="$_AND_"/>
<path class="cell_$abc$176$auto$blifparse.cc:396:parse_blif$179" d="m0 0v25h15a15 12.5 0 0 0 0-25z"/>
</g>
<g transform="translate(219,82)" s:height="25" s:type="reduce_nor" s:width="33">
<s:alias val="$nor"/>
<s:alias val="$reduce_nor"/>
<s:alias val="$_NOR_"/>
<s:alias val="$_ORNOT_"/>
<path class="cell_$abc$176$auto$blifparse.cc:396:parse_blif$180" d="m0 25h15a15 12.5 0 0 0 0-25h-15"/>
<path class="cell_$abc$176$auto$blifparse.cc:396:parse_blif$180" d="m0 0a30 25 0 0 1 0 25"/>
<circle class="cell_$abc$176$auto$blifparse.cc:396:parse_blif$180" cx="34" cy="12.5" r="3"/>
</g>
<g transform="translate(148,89.5)" s:height="25" s:type="nand" s:width="30">
<s:alias val="$nand"/>
<s:alias val="$logic_nand"/>
<s:alias val="$_NAND_"/>
<s:alias val="$_ANDNOT_"/>
<path class="cell_$abc$176$auto$blifparse.cc:396:parse_blif$181" d="m0 0v25h15a15 12.5 0 0 0 0-25z"/>
<circle class="cell_$abc$176$auto$blifparse.cc:396:parse_blif$181" cx="34" cy="12.5" r="3"/>
</g>
<g transform="translate(12,107)" s:height="20" s:type="inputExt" s:width="30">
<text class="nodelabel cell_s" x="15" y="-4" s:attribute="ref">s</text>
<s:alias val="$_inputExt_"/>
<path class="cell_s" d="m0 0v20h15l15-10-15-10z"/>
</g>
<g transform="translate(77,22)" s:height="20" s:type="inputExt" s:width="30">
<text class="nodelabel cell_r" x="15" y="-4" s:attribute="ref">r</text>
<s:alias val="$_inputExt_"/>
<path class="cell_r" d="m0 0v20h15l15-10-15-10z"/>
</g>
<g transform="translate(12,42)" s:height="20" s:type="inputExt" s:width="30">
<text class="nodelabel cell_c" x="15" y="-4" s:attribute="ref">c</text>
<s:alias val="$_inputExt_"/>
<path class="cell_c" d="m0 0v20h15l15-10-15-10z"/>
</g>
<g transform="translate(290,149.5)" s:height="20" s:type="outputExt" s:width="30">
<text class="nodelabel cell_q" x="15" y="-4" s:attribute="ref">q</text>
<s:alias val="$_outputExt_"/>
<path class="cell_q" d="m30 0v20h-15l-15-10 15-10z"/>
</g>
<g transform="translate(290,84.5)" s:height="20" s:type="outputExt" s:width="30">
<text class="nodelabel cell_q0" x="15" y="-4" s:attribute="ref">q0</text>
<s:alias val="$_outputExt_"/>
<path class="cell_q0" d="m30 0v20h-15l-15-10 15-10z"/>
</g>
<line class="net_4" x1="40" x2="52" y1="52" y2="52"/>
<line class="net_4" x1="52" x2="52" y1="52" y2="102"/>
<circle class="net_4" cx="52" cy="52" r="2"/>
<line class="net_4" x1="52" x2="77" y1="102" y2="102"/>
<line class="net_4" x1="40" x2="123" y1="52" y2="52"/>
<line class="net_4" x1="123" x2="123" y1="52" y2="47"/>
<line class="net_4" x1="123" x2="150" y1="47" y2="47"/>
<line class="net_2" x1="40" x2="77" y1="117" y2="117"/>
<line class="net_3" x1="105" x2="150" y1="32" y2="32"/>
<line class="net_8" x1="180" x2="194" y1="39.5" y2="39.5"/>
<line class="net_8" x1="194" x2="194" y1="39.5" y2="87"/>
<line class="net_8" x1="194" x2="222" y1="87" y2="87"/>
<line class="net_5" x1="184" x2="222" y1="102" y2="102"/>
<line class="net_5" x1="184" x2="194" y1="102" y2="102"/>
<line class="net_5" x1="194" x2="194" y1="102" y2="159.5"/>
<circle class="net_5" cx="194" cy="102" r="2"/>
<line class="net_5" x1="194" x2="290" y1="159.5" y2="159.5"/>
<line class="net_6" x1="255" x2="265" y1="94.5" y2="94.5"/>
<line class="net_6" x1="265" x2="265" y1="94.5" y2="72"/>
<line class="net_6" x1="265" x2="123" y1="72" y2="72"/>
<line class="net_6" x1="123" x2="123" y1="72" y2="94.5"/>
<circle class="net_6" cx="265" cy="94.5" r="2"/>
<line class="net_6" x1="123" x2="148" y1="94.5" y2="94.5"/>
<line class="net_6" x1="255" x2="290" y1="94.5" y2="94.5"/>
<line class="net_7" x1="113" x2="148" y1="109.5" y2="109.5"/>
</svg>
