<svg xmlns="http://www.w3.org/2000/svg" xmlns:xlink="http://www.w3.org/1999/xlink" xmlns:s="https://github.com/nturley/netlistsvg" width="332" height="181.5">
  <style>svg {
    stroke:#000;
    fill:none;
  }
  text {
    fill:#000;
    stroke:none;
    font-size:10px;
    font-weight: bold;
    font-family: "Courier New", monospace;
  }
  .nodelabel {
    text-anchor: middle;
  }
  .inputPortLabel {
    text-anchor: end;
  }
  .splitjoinBody {
    fill:#000;
  }</style>
  <g s:type="nand" transform="translate(77,97)" s:width="30" s:height="25" id="cell_$abc$94$auto$blifparse.cc:396:parse_blif$96">
    <s:alias val="$nand"/>
    <s:alias val="$logic_nand"/>
    <s:alias val="$_NAND_"/>
    <s:alias val="$_ANDNOT_"/>
    <path d="M0,0 L0,25 L15,25 A15 12.5 0 0 0 15,0 Z" class="cell_$abc$94$auto$blifparse.cc:396:parse_blif$96"/>
    <circle cx="34" cy="12.5" r="3" class="cell_$abc$94$auto$blifparse.cc:396:parse_blif$96"/>
    <g s:x="0" s:y="5" s:pid="A"/>
    <g s:x="0" s:y="20" s:pid="B"/>
    <g s:x="36" s:y="12.5" s:pid="Y"/>
  </g>
  <g s:type="and" transform="translate(150,27)" s:width="30" s:height="25" id="cell_$abc$94$auto$blifparse.cc:396:parse_blif$97">
    <s:alias val="$and"/>
    <s:alias val="$logic_and"/>
    <s:alias val="$_AND_"/>
    <path d="M0,0 L0,25 L15,25 A15 12.5 0 0 0 15,0 Z" class="cell_$abc$94$auto$blifparse.cc:396:parse_blif$97"/>
    <g s:x="0" s:y="5" s:pid="A"/>
    <g s:x="0" s:y="20" s:pid="B"/>
    <g s:x="30" s:y="12.5" s:pid="Y"/>
  </g>
  <g s:type="reduce_nor" transform="translate(219,82)" s:width="33" s:height="25" id="cell_$abc$94$auto$blifparse.cc:396:parse_blif$98">
    <s:alias val="$nor"/>
    <s:alias val="$reduce_nor"/>
    <s:alias val="$_NOR_"/>
    <s:alias val="$_ORNOT_"/>
    <path d="M0,25 L0,25 L15,25 A15 12.5 0 0 0 15,0 L0,0" class="cell_$abc$94$auto$blifparse.cc:396:parse_blif$98"/>
    <path d="M0,0 A30 25 0 0 1 0,25" class="cell_$abc$94$auto$blifparse.cc:396:parse_blif$98"/>
    <circle cx="34" cy="12.5" r="3" class="cell_$abc$94$auto$blifparse.cc:396:parse_blif$98"/>
    <g s:x="3" s:y="5" s:pid="A"/>
    <g s:x="3" s:y="20" s:pid="B"/>
    <g s:x="36" s:y="12.5" s:pid="Y"/>
  </g>
  <g s:type="nand" transform="translate(148,89.5)" s:width="30" s:height="25" id="cell_$abc$94$auto$blifparse.cc:396:parse_blif$99">
    <s:alias val="$nand"/>
    <s:alias val="$logic_nand"/>
    <s:alias val="$_NAND_"/>
    <s:alias val="$_ANDNOT_"/>
    <path d="M0,0 L0,25 L15,25 A15 12.5 0 0 0 15,0 Z" class="cell_$abc$94$auto$blifparse.cc:396:parse_blif$99"/>
    <circle cx="34" cy="12.5" r="3" class="cell_$abc$94$auto$blifparse.cc:396:parse_blif$99"/>
    <g s:x="0" s:y="5" s:pid="A"/>
    <g s:x="0" s:y="20" s:pid="B"/>
    <g s:x="36" s:y="12.5" s:pid="Y"/>
  </g>
  <g s:type="inputExt" transform="translate(12,107)" s:width="30" s:height="20" id="cell_s">
    <text x="15" y="-4" class="nodelabel cell_s" s:attribute="ref">s</text>
    <s:alias val="$_inputExt_"/>
    <path d="M0,0 L0,20 L15,20 L30,10 L15,0 Z" class="cell_s"/>
    <g s:x="28" s:y="10" s:pid="Y"/>
  </g>
  <g s:type="inputExt" transform="translate(77,22)" s:width="30" s:height="20" id="cell_r">
    <text x="15" y="-4" class="nodelabel cell_r" s:attribute="ref">r</text>
    <s:alias val="$_inputExt_"/>
    <path d="M0,0 L0,20 L15,20 L30,10 L15,0 Z" class="cell_r"/>
    <g s:x="28" s:y="10" s:pid="Y"/>
  </g>
  <g s:type="inputExt" transform="translate(12,42)" s:width="30" s:height="20" id="cell_c">
    <text x="15" y="-4" class="nodelabel cell_c" s:attribute="ref">c</text>
    <s:alias val="$_inputExt_"/>
    <path d="M0,0 L0,20 L15,20 L30,10 L15,0 Z" class="cell_c"/>
    <g s:x="28" s:y="10" s:pid="Y"/>
  </g>
  <g s:type="outputExt" transform="translate(290,149.5)" s:width="30" s:height="20" id="cell_q">
    <text x="15" y="-4" class="nodelabel cell_q" s:attribute="ref">q</text>
    <s:alias val="$_outputExt_"/>
    <path d="M30,0 L30,20 L15,20 L0,10 L15,0 Z" class="cell_q"/>
    <g s:x="0" s:y="10" s:pid="A"/>
  </g>
  <g s:type="outputExt" transform="translate(290,84.5)" s:width="30" s:height="20" id="cell_q0">
    <text x="15" y="-4" class="nodelabel cell_q0" s:attribute="ref">q0</text>
    <s:alias val="$_outputExt_"/>
    <path d="M30,0 L30,20 L15,20 L0,10 L15,0 Z" class="cell_q0"/>
    <g s:x="0" s:y="10" s:pid="A"/>
  </g>
  <line x1="40" x2="52" y1="52" y2="52" class="net_4"/>
  <line x1="52" x2="52" y1="52" y2="102" class="net_4"/>
  <circle cx="52" cy="52" r="2" style="fill:#000" class="net_4"/>
  <line x1="52" x2="77" y1="102" y2="102" class="net_4"/>
  <line x1="40" x2="123" y1="52" y2="52" class="net_4"/>
  <line x1="123" x2="123" y1="52" y2="47" class="net_4"/>
  <line x1="123" x2="150" y1="47" y2="47" class="net_4"/>
  <line x1="40" x2="77" y1="117" y2="117" class="net_2"/>
  <line x1="105" x2="150" y1="32" y2="32" class="net_3"/>
  <line x1="180" x2="194" y1="39.5" y2="39.5" class="net_8"/>
  <line x1="194" x2="194" y1="39.5" y2="87" class="net_8"/>
  <line x1="194" x2="222" y1="87" y2="87" class="net_8"/>
  <line x1="184" x2="222" y1="102" y2="102" class="net_5"/>
  <line x1="184" x2="194" y1="102" y2="102" class="net_5"/>
  <line x1="194" x2="194" y1="102" y2="159.5" class="net_5"/>
  <circle cx="194" cy="102" r="2" style="fill:#000" class="net_5"/>
  <line x1="194" x2="290" y1="159.5" y2="159.5" class="net_5"/>
  <line x1="255" x2="265" y1="94.5" y2="94.5" class="net_6"/>
  <line x1="265" x2="265" y1="94.5" y2="72" class="net_6"/>
  <line x1="265" x2="123" y1="72" y2="72" class="net_6"/>
  <line x1="123" x2="123" y1="72" y2="94.5" class="net_6"/>
  <circle cx="265" cy="94.5" r="2" style="fill:#000" class="net_6"/>
  <line x1="123" x2="148" y1="94.5" y2="94.5" class="net_6"/>
  <line x1="255" x2="290" y1="94.5" y2="94.5" class="net_6"/>
  <line x1="113" x2="148" y1="109.5" y2="109.5" class="net_7"/>
</svg>
